<svg id="svg" version="1.1" xmlns="http://www.w3.org/2000/svg" xmlns:xlink="http://www.w3.org/1999/xlink" width="400" height="167.5806451612903" viewBox="0, 0, 400,167.5806451612903"><g id="svgg"><path id="path0" d="M134.261 39.708 C 135.960 48.173,124.251 50.087,121.741 41.755 L 121.538 41.083 121.420 41.696 C 121.257 42.533,121.725 44.500,122.378 45.724 C 125.109 50.849,131.990 50.770,134.583 45.583 C 135.220 44.309,135.316 41.502,134.769 40.125 C 134.444 39.307,134.129 39.048,134.261 39.708 M118.000 44.205 C 113.924 45.444,105.255 48.507,101.833 49.917 C 98.535 51.276,91.332 54.498,89.168 55.583 C 87.978 56.179,86.897 56.667,86.764 56.667 C 86.632 56.667,86.407 56.783,86.265 56.926 C 86.122 57.068,85.048 57.658,83.878 58.236 C 80.461 59.925,72.955 64.148,68.227 67.043 C 66.957 67.821,65.603 68.636,65.220 68.854 C 64.194 69.437,56.222 74.853,54.356 76.235 C 53.473 76.889,52.225 77.794,51.583 78.247 C 50.942 78.700,49.336 79.931,48.015 80.983 L 45.613 82.894 46.181 83.378 C 46.494 83.644,47.067 84.126,47.456 84.449 L 48.161 85.036 50.372 83.212 C 61.271 74.224,77.235 64.439,93.333 56.879 C 100.338 53.590,109.562 50.190,117.905 47.822 C 120.463 47.095,120.456 47.099,120.203 46.794 C 120.105 46.676,119.837 46.018,119.606 45.332 C 119.150 43.974,119.033 43.891,118.000 44.205 M35.784 70.187 C 34.882 73.255,33.457 74.861,31.214 75.337 C 30.110 75.572,28.167 75.645,28.167 75.452 C 28.167 75.366,28.017 75.334,27.833 75.382 C 27.650 75.430,27.500 75.419,27.500 75.358 C 27.500 75.298,27.144 75.085,26.708 74.885 C 26.273 74.685,25.721 74.310,25.482 74.052 C 24.844 73.364,23.401 71.452,23.302 71.165 C 23.108 70.602,22.995 72.017,23.154 73.016 C 24.041 78.588,30.317 80.704,34.532 76.851 C 36.257 75.275,37.134 72.184,36.511 69.875 C 36.256 68.929,36.138 68.980,35.784 70.187 M129.487 85.099 C 129.265 85.337,128.408 86.072,127.583 86.733 C 126.758 87.393,125.183 88.653,124.083 89.532 C 121.706 91.433,116.593 95.144,113.625 97.123 C 112.456 97.902,111.500 98.647,111.500 98.780 C 111.500 99.308,122.579 91.501,128.051 87.117 C 130.078 85.494,130.484 85.098,130.322 84.903 C 130.052 84.578,129.952 84.601,129.487 85.099 M107.330 101.226 C 107.011 101.442,104.800 102.765,102.417 104.167 C 98.696 106.356,96.225 107.715,91.280 110.294 C 90.747 110.572,90.392 110.850,90.491 110.911 C 90.967 111.205,108.167 101.537,108.167 100.976 C 108.167 100.744,107.946 100.810,107.330 101.226 M162.708 114.792 C 162.782 128.185,162.749 127.757,163.876 129.903 C 167.584 136.969,181.508 136.486,184.016 129.206 C 184.775 127.002,184.832 125.931,184.833 113.958 L 184.833 102.667 182.000 102.667 L 179.167 102.667 179.167 113.046 C 179.167 124.191,179.080 125.794,178.420 126.925 C 177.243 128.938,173.161 129.322,171.205 127.605 C 169.864 126.428,169.923 127.016,169.869 114.125 L 169.820 102.667 166.230 102.667 L 162.640 102.667 162.708 114.792 M269.500 107.763 L 269.500 112.859 269.043 112.304 C 266.868 109.668,262.157 109.592,259.790 112.155 C 256.951 115.230,255.967 122.735,257.604 128.833 C 259.369 135.409,265.800 137.080,269.187 131.842 L 269.667 131.101 269.667 132.717 L 269.667 134.333 272.583 134.333 L 275.500 134.333 275.500 118.500 L 275.500 102.667 272.500 102.667 L 269.500 102.667 269.500 107.763 M206.114 106.905 C 204.950 107.326,204.239 108.354,203.825 110.215 C 203.655 110.982,203.556 111.160,203.347 111.078 C 200.392 109.924,194.648 110.185,192.250 111.582 C 188.000 114.058,187.639 120.277,191.600 122.787 L 192.282 123.219 191.100 124.016 C 187.823 126.223,187.350 130.386,190.163 132.250 C 190.808 132.678,190.801 132.710,189.975 133.074 C 186.201 134.739,186.806 139.929,190.958 141.507 C 194.841 142.982,203.348 142.560,206.630 140.729 C 210.562 138.535,211.226 132.477,207.805 129.999 C 206.582 129.113,205.424 128.890,199.583 128.422 C 196.126 128.144,195.272 127.976,194.717 127.463 C 193.653 126.480,194.475 124.374,195.802 124.683 C 200.070 125.674,205.647 123.817,207.127 120.910 C 207.997 119.202,207.970 115.710,207.076 114.239 C 206.244 112.869,206.242 112.862,206.585 112.226 C 207.048 111.366,207.665 111.110,209.035 111.208 L 210.176 111.289 210.130 109.020 L 210.083 106.750 208.417 106.713 C 207.331 106.689,206.528 106.756,206.114 106.905 M218.918 110.523 C 215.236 111.384,213.439 112.741,212.606 115.289 C 212.025 117.065,211.900 117.833,212.190 117.835 C 212.315 117.836,213.354 117.947,214.500 118.083 C 217.680 118.461,217.583 118.476,217.841 117.556 C 218.285 115.971,219.418 115.166,221.203 115.167 C 223.163 115.168,223.862 115.931,223.970 118.188 L 224.041 119.667 223.395 119.670 C 221.458 119.679,216.374 120.720,215.101 121.367 C 211.861 123.017,210.383 128.098,212.110 131.648 C 214.225 135.995,221.222 135.981,223.801 131.625 C 224.209 130.935,224.266 131.034,224.431 132.708 L 224.583 134.250 227.645 134.296 L 230.707 134.341 230.585 133.879 C 230.518 133.625,230.405 129.479,230.334 124.667 C 230.206 115.886,230.149 115.101,229.556 113.941 C 228.906 112.671,227.540 111.400,226.500 111.098 C 224.120 110.407,223.679 110.340,221.667 110.353 C 220.521 110.361,219.284 110.437,218.918 110.523 M244.833 110.480 C 243.392 110.951,242.452 111.754,241.553 113.285 L 241.083 114.083 241.036 112.458 L 240.988 110.833 238.077 110.833 L 235.167 110.833 235.167 122.583 L 235.167 134.333 238.326 134.333 L 241.485 134.333 241.534 126.375 L 241.583 118.417 241.981 117.538 C 243.131 114.992,246.248 115.178,246.816 117.827 C 246.935 118.381,247.000 121.441,247.000 126.508 L 247.000 134.333 250.099 134.333 L 253.198 134.333 253.121 125.292 C 253.026 114.087,252.958 113.625,251.156 111.822 C 250.795 111.462,250.439 111.167,250.365 111.167 C 250.290 111.167,249.896 111.002,249.490 110.800 C 248.692 110.405,245.695 110.199,244.833 110.480 M286.917 110.449 C 283.067 111.342,281.261 112.748,280.179 115.695 C 279.601 117.268,279.560 117.832,280.023 117.843 C 280.240 117.848,281.542 117.982,282.917 118.141 L 285.417 118.430 285.629 117.590 C 286.055 115.900,286.841 115.274,288.636 115.195 C 290.787 115.100,291.714 115.986,291.807 118.227 L 291.865 119.597 289.754 119.807 C 287.475 120.033,283.985 120.832,282.929 121.370 C 279.245 123.246,277.873 128.809,280.244 132.252 C 282.816 135.986,289.262 135.642,291.623 131.644 C 292.043 130.933,292.099 131.026,292.265 132.708 L 292.417 134.250 295.395 134.296 L 298.374 134.341 298.252 133.879 C 298.185 133.625,298.072 129.442,298.002 124.583 C 297.862 114.923,297.812 114.419,296.874 113.109 C 296.330 112.350,294.985 111.247,294.433 111.107 C 294.241 111.058,293.483 110.865,292.750 110.677 C 291.477 110.351,287.935 110.213,286.917 110.449 M86.395 112.659 C 86.183 112.853,80.951 115.286,78.284 116.430 C 76.221 117.315,76.039 117.425,76.520 117.500 C 76.889 117.557,77.348 117.446,77.987 117.144 C 78.498 116.902,80.735 115.861,82.958 114.831 C 85.181 113.801,87.000 112.901,87.000 112.830 C 87.000 112.634,86.559 112.509,86.395 112.659 M200.006 114.503 C 201.771 115.403,202.293 118.062,201.033 119.731 C 199.629 121.590,196.501 121.428,195.517 119.444 C 193.914 116.211,196.904 112.921,200.006 114.503 M267.802 115.400 C 269.042 116.042,269.417 117.730,269.416 122.667 C 269.415 127.153,269.262 127.851,268.008 129.076 C 264.977 132.036,262.317 126.737,263.344 119.782 C 263.893 116.055,265.678 114.302,267.802 115.400 M91.583 117.599 C 88.956 118.277,89.908 120.497,92.723 120.258 C 96.442 119.943,96.370 121.387,92.583 123.071 C 89.669 124.367,85.125 126.645,84.957 126.895 C 84.887 126.999,84.849 127.308,84.873 127.583 C 84.956 128.540,85.974 128.399,89.689 126.917 C 92.981 125.603,93.708 125.458,93.800 126.098 C 93.870 126.588,93.680 126.704,91.160 127.721 C 87.038 129.384,84.695 130.578,84.569 131.082 C 84.244 132.377,85.260 132.670,87.171 131.832 C 92.496 129.494,94.343 128.867,94.738 129.262 C 95.478 130.002,95.372 130.080,91.090 131.925 C 87.785 133.350,87.549 133.510,87.726 134.213 C 88.057 135.533,88.775 135.455,92.800 133.659 C 95.937 132.259,96.667 132.100,96.667 132.816 C 96.667 133.273,96.403 133.434,93.907 134.498 C 91.280 135.618,91.262 135.631,91.413 136.318 C 91.676 137.516,91.184 137.684,101.254 132.955 L 103.092 132.092 103.896 128.838 C 104.338 127.048,104.738 125.415,104.784 125.208 C 104.851 124.915,104.796 124.833,104.532 124.833 C 104.221 124.833,104.208 124.783,104.370 124.208 C 104.629 123.294,104.589 121.347,104.297 120.661 C 104.059 120.100,103.903 120.014,101.027 118.867 L 98.007 117.662 94.962 117.588 C 93.287 117.547,91.767 117.552,91.583 117.599 M61.500 122.522 C 59.921 122.989,59.592 123.082,57.733 123.586 C 56.088 124.033,56.050 124.054,56.067 124.521 C 56.087 125.106,55.954 125.108,58.123 124.485 C 59.110 124.201,60.142 123.912,60.417 123.842 C 62.376 123.345,62.833 123.117,62.833 122.636 C 62.833 122.378,62.777 122.175,62.708 122.184 C 62.640 122.194,62.096 122.346,61.500 122.522 M223.973 125.060 C 223.840 129.528,220.172 132.218,218.309 129.212 C 216.721 126.651,219.679 123.249,223.556 123.176 L 224.029 123.167 223.973 125.060 M291.833 124.720 C 291.833 129.333,288.065 132.307,286.141 129.212 C 284.490 126.557,287.351 123.256,291.375 123.176 L 291.833 123.167 291.833 124.720 M202.198 134.522 C 204.528 134.880,204.917 136.691,202.880 137.689 C 201.421 138.404,195.483 138.315,193.880 137.555 C 192.769 137.027,192.508 135.715,193.330 134.780 L 193.826 134.214 197.455 134.282 C 199.450 134.320,201.585 134.427,202.198 134.522 " stroke="none" fill="#196935" fill-rule="evenodd"></path><path id="path1" d="M85.500 6.756 C 84.274 7.137,83.980 7.337,84.249 7.606 C 84.513 7.870,84.734 7.910,84.583 7.667 C 84.527 7.575,84.560 7.500,84.657 7.500 C 84.754 7.500,84.833 7.562,84.833 7.637 C 84.833 7.712,85.471 7.990,86.250 8.255 C 87.029 8.519,87.667 8.786,87.667 8.848 C 87.667 8.909,87.910 9.058,88.208 9.179 C 88.506 9.299,88.787 9.445,88.833 9.502 C 88.879 9.559,89.255 9.768,89.669 9.966 C 90.083 10.164,90.702 10.590,91.045 10.913 C 91.387 11.236,91.724 11.500,91.793 11.500 C 92.034 11.500,94.833 14.341,94.833 14.586 C 94.833 14.727,94.994 14.839,95.208 14.846 C 95.415 14.854,95.490 14.897,95.375 14.944 C 95.053 15.074,95.126 15.261,95.579 15.468 C 95.805 15.571,96.039 15.845,96.097 16.078 C 96.155 16.310,96.270 16.500,96.351 16.500 C 96.433 16.500,96.500 16.579,96.500 16.676 C 96.500 16.772,96.725 17.091,96.999 17.384 C 97.274 17.677,97.499 18.031,97.499 18.171 C 97.500 18.311,97.599 18.574,97.720 18.755 C 97.841 18.935,98.114 19.571,98.326 20.167 C 98.538 20.762,98.758 21.287,98.815 21.333 C 98.992 21.476,99.333 22.586,99.333 23.022 C 99.333 23.251,99.491 23.764,99.684 24.163 C 99.916 24.644,100.005 25.071,99.947 25.430 C 99.899 25.727,99.905 26.016,99.961 26.072 C 100.215 26.326,100.286 27.591,100.043 27.542 C 99.908 27.515,99.985 27.888,100.269 28.626 C 102.068 33.308,104.144 40.631,104.915 45.014 C 105.070 45.892,105.256 46.708,105.329 46.826 C 105.506 47.112,108.667 46.086,108.667 45.742 C 108.667 45.616,108.360 44.028,107.985 42.214 C 102.923 17.715,94.247 4.035,85.500 6.756 M229.726 32.929 C 217.539 34.976,210.085 46.831,210.087 64.167 C 210.089 82.685,218.161 94.306,231.847 95.494 C 244.464 96.590,254.354 87.735,255.617 74.212 L 255.715 73.167 255.220 73.167 C 254.948 73.167,252.556 73.018,249.904 72.836 C 247.253 72.654,244.752 72.485,244.347 72.461 L 243.610 72.417 243.227 74.250 C 241.721 81.456,237.834 84.841,232.239 83.819 C 226.922 82.848,224.534 78.164,223.990 67.637 C 223.143 51.235,227.600 42.486,235.819 44.424 C 239.777 45.357,242.042 49.038,242.486 55.261 C 242.554 56.217,242.655 57.044,242.710 57.099 C 242.764 57.153,245.537 57.004,248.870 56.766 C 252.204 56.528,255.097 56.333,255.299 56.333 C 256.389 56.333,254.575 48.160,252.505 43.740 C 248.553 35.302,239.938 31.213,229.726 32.929 M275.539 32.916 C 266.346 34.583,260.459 41.994,260.448 51.917 C 260.436 62.285,265.066 66.980,278.863 70.590 C 287.046 72.731,288.883 74.140,288.631 78.079 C 288.381 81.961,285.390 84.080,280.167 84.076 C 274.590 84.072,271.316 81.901,269.639 77.098 C 269.224 75.909,269.124 75.755,268.793 75.796 C 268.366 75.849,257.785 78.525,257.685 78.606 C 257.028 79.135,259.825 85.386,261.935 88.105 C 269.173 97.431,287.523 98.292,295.702 89.690 C 303.135 81.871,303.455 69.860,296.425 62.523 C 293.459 59.428,290.829 58.263,281.301 55.826 C 274.398 54.060,272.751 52.775,272.761 49.167 C 272.770 46.144,274.284 44.521,277.667 43.906 C 283.003 42.935,287.038 45.007,288.882 49.663 C 289.435 51.058,288.898 51.127,294.689 48.913 C 300.667 46.626,300.109 47.025,299.509 45.468 C 296.700 38.173,291.659 34.047,284.167 32.909 C 282.193 32.609,277.209 32.613,275.539 32.916 M175.120 40.208 C 171.592 52.697,165.476 74.446,163.718 80.750 C 161.983 86.977,160.004 93.963,159.896 94.244 C 159.806 94.478,160.367 94.500,165.340 94.461 L 170.884 94.417 171.849 90.750 C 172.380 88.733,173.129 85.901,173.514 84.457 L 174.214 81.830 182.899 81.874 L 191.583 81.917 192.782 86.500 C 193.442 89.021,194.183 91.852,194.429 92.792 L 194.877 94.500 201.605 94.500 C 205.306 94.500,208.333 94.463,208.333 94.418 C 208.333 94.329,206.430 87.355,202.441 72.833 C 201.018 67.654,198.796 59.554,197.502 54.833 C 196.209 50.112,194.823 45.087,194.423 43.667 C 194.023 42.246,193.275 39.508,192.760 37.583 C 192.246 35.658,191.754 33.915,191.666 33.708 L 191.507 33.333 184.284 33.333 L 177.062 33.333 175.120 40.208 M309.667 63.917 L 309.667 94.500 328.833 94.500 L 348.000 94.500 348.000 88.417 L 348.000 82.333 335.250 82.333 L 322.500 82.333 322.500 75.667 L 322.500 69.000 332.500 69.000 L 342.500 69.000 342.500 63.250 L 342.500 57.500 332.500 57.500 L 322.500 57.500 322.500 51.250 L 322.500 45.000 335.250 45.000 L 348.000 45.000 348.000 39.167 L 348.000 33.333 328.833 33.333 L 309.667 33.333 309.667 63.917 M350.167 39.417 L 350.167 45.500 356.833 45.500 L 363.500 45.500 363.500 70.002 L 363.500 94.504 369.875 94.460 L 376.250 94.417 376.292 69.958 L 376.334 45.500 382.917 45.500 L 389.500 45.500 389.500 39.417 L 389.500 33.333 369.833 33.333 L 350.167 33.333 350.167 39.417 M183.236 50.069 C 183.295 50.381,184.096 53.475,185.016 56.944 C 187.423 66.015,188.500 70.188,188.500 70.443 C 188.500 70.626,187.472 70.667,182.917 70.667 C 177.875 70.667,177.333 70.640,177.333 70.396 C 177.333 70.247,178.014 67.603,178.846 64.521 C 180.111 59.836,182.037 52.611,182.684 50.125 C 182.886 49.347,183.097 49.326,183.236 50.069 M107.838 52.268 C 107.061 52.498,106.407 52.704,106.384 52.727 C 106.362 52.749,106.493 53.739,106.676 54.926 C 108.134 64.383,108.669 72.463,108.660 84.893 C 108.651 96.967,108.007 106.845,106.688 115.130 C 106.611 115.614,106.594 116.035,106.649 116.066 C 106.923 116.218,109.529 117.027,109.579 116.976 C 109.674 116.879,110.472 110.453,110.746 107.583 C 112.317 91.101,112.121 71.308,110.235 56.000 C 109.756 52.110,109.702 51.830,109.440 51.842 C 109.336 51.847,108.614 52.039,107.838 52.268 M84.601 68.428 C 81.516 69.558,80.490 73.738,82.685 76.231 C 85.691 79.646,91.236 77.550,91.233 73.000 C 91.230 69.594,87.825 67.246,84.601 68.428 M63.815 73.605 C 63.493 73.994,63.467 95.867,63.789 96.189 C 64.155 96.555,64.164 96.303,63.990 90.464 C 63.870 86.484,63.871 82.961,63.991 79.072 C 64.174 73.116,64.176 73.171,63.815 73.605 M72.586 76.263 C 71.435 77.504,71.874 78.375,74.603 80.266 C 78.458 82.938,78.953 83.694,79.203 87.297 C 79.500 91.578,79.199 94.820,78.245 97.632 C 77.437 100.013,77.507 101.167,78.459 101.167 C 79.343 101.167,79.946 100.530,82.188 97.232 C 84.579 93.712,84.966 93.320,86.160 93.205 C 87.617 93.065,87.756 93.194,90.644 97.359 C 92.804 100.473,93.479 101.167,94.352 101.167 C 95.353 101.167,95.375 100.051,94.423 97.423 C 93.507 94.891,93.249 92.356,93.467 88.000 C 93.674 83.857,94.153 83.041,97.928 80.412 C 100.835 78.387,101.285 77.594,100.235 76.346 C 99.594 75.585,98.931 75.649,96.843 76.678 C 92.722 78.707,89.954 79.412,86.083 79.414 L 83.250 79.417 80.244 78.395 C 78.591 77.832,76.566 77.026,75.744 76.603 C 73.961 75.685,73.198 75.603,72.586 76.263 M63.963 100.958 C 64.234 105.351,64.941 112.286,65.505 116.083 C 65.798 118.053,65.803 118.265,65.563 118.417 C 65.418 118.508,64.976 118.784,64.581 119.029 C 63.137 119.924,62.433 122.523,63.043 124.702 C 63.161 125.122,63.124 125.165,62.499 125.334 C 60.352 125.912,59.475 128.966,60.875 130.994 C 61.236 131.518,66.821 134.356,68.898 135.072 C 69.275 135.202,70.925 135.989,72.566 136.821 C 76.178 138.653,76.636 138.696,76.929 137.230 C 77.061 136.570,77.005 136.533,74.224 135.421 C 71.816 134.459,71.210 134.061,71.399 133.570 C 71.650 132.915,73.218 133.326,75.750 134.710 C 79.181 136.586,80.204 136.743,80.736 135.476 C 81.188 134.402,80.966 134.250,75.667 132.007 C 73.417 131.055,72.925 130.724,73.095 130.279 C 73.374 129.553,74.533 129.911,81.583 132.901 C 83.571 133.744,85.146 132.645,83.784 131.365 C 83.428 131.031,77.800 128.441,75.917 127.744 C 74.786 127.326,74.333 127.018,74.333 126.665 C 74.333 125.946,74.936 126.079,78.960 127.685 C 82.857 129.240,84.043 129.253,83.758 127.735 C 83.634 127.071,83.216 126.844,75.769 123.389 C 72.681 121.956,72.286 121.634,72.814 120.982 C 73.120 120.604,73.238 120.583,75.044 120.577 C 77.574 120.569,78.622 119.878,78.152 118.528 C 77.706 117.249,72.864 116.965,67.851 117.924 C 67.167 118.055,66.583 118.138,66.554 118.109 C 66.340 117.895,65.145 108.477,64.732 103.750 C 64.475 100.809,64.346 100.180,63.999 100.169 C 63.952 100.168,63.936 100.523,63.963 100.958 M105.420 122.561 C 105.192 123.626,103.781 129.592,103.513 130.625 L 103.200 131.833 103.808 131.836 C 104.143 131.837,104.898 131.952,105.487 132.091 C 106.076 132.229,106.608 132.284,106.671 132.213 C 106.828 132.033,108.367 124.782,108.553 123.345 C 108.574 123.180,108.108 122.968,107.040 122.656 L 105.497 122.205 105.420 122.561 M100.982 134.578 C 95.384 136.639,95.172 144.633,100.646 147.227 C 106.138 149.829,112.358 143.751,109.798 138.285 C 109.291 137.204,107.846 135.527,108.161 136.386 C 109.351 139.631,105.647 143.248,102.567 141.849 C 100.676 140.990,100.004 136.477,101.525 134.845 C 102.054 134.278,101.944 134.224,100.982 134.578 M96.662 148.211 C 92.320 155.937,85.805 158.175,80.609 153.727 C 78.518 151.937,78.841 152.036,77.961 152.916 C 77.538 153.339,77.103 153.792,76.994 153.923 C 76.732 154.239,78.588 157.056,80.144 158.707 C 86.757 165.717,94.250 162.948,100.080 151.340 C 100.506 150.492,100.831 149.787,100.802 149.773 C 100.773 149.758,100.263 149.514,99.667 149.229 C 99.071 148.944,98.237 148.446,97.813 148.123 L 97.042 147.534 96.662 148.211 " stroke="none" fill="#ad0c08" fill-rule="evenodd"></path><path id="path2" d="M0.000 83.750 L 0.000 167.500 200.000 167.500 L 400.000 167.500 400.000 83.750 L 400.000 0.000 200.000 0.000 L 0.000 0.000 0.000 83.750 M89.613 6.567 C 96.231 8.329,103.348 20.718,106.809 36.500 C 108.024 42.040,108.774 45.948,108.646 46.076 C 108.605 46.117,107.872 46.351,107.017 46.596 C 105.239 47.106,105.285 47.127,104.992 45.667 C 104.891 45.163,104.544 43.625,104.221 42.250 C 103.898 40.875,103.565 39.412,103.481 39.000 C 103.090 37.072,101.494 32.251,100.073 28.703 C 92.096 8.781,80.633 8.603,72.730 28.278 L 72.250 29.473 71.456 29.528 C 70.895 29.567,70.685 29.525,70.739 29.386 C 70.780 29.277,70.735 29.162,70.638 29.129 C 70.224 28.991,72.884 22.086,75.090 17.568 C 76.414 14.857,79.424 10.479,80.558 9.614 C 80.877 9.371,81.246 9.064,81.378 8.932 C 83.375 6.934,87.040 5.882,89.613 6.567 M238.927 32.986 C 247.678 34.772,252.959 40.882,255.070 51.667 C 255.475 53.736,255.840 56.191,255.756 56.292 C 255.737 56.315,253.628 56.485,251.069 56.669 C 248.510 56.853,245.592 57.066,244.583 57.142 C 242.384 57.307,242.500 57.356,242.500 56.267 C 242.500 48.312,238.224 43.241,232.423 44.317 C 226.560 45.405,224.086 51.342,224.084 64.333 C 224.082 77.684,226.385 82.900,232.708 83.863 C 238.269 84.710,242.188 80.743,243.420 73.022 L 243.536 72.294 244.643 72.396 C 245.252 72.452,247.963 72.653,250.667 72.842 C 253.371 73.032,255.629 73.239,255.684 73.302 C 256.149 73.833,254.383 80.751,253.020 83.740 C 246.963 97.020,228.296 99.824,218.100 88.985 C 211.415 81.879,208.522 69.686,210.433 56.667 C 212.926 39.670,224.510 30.043,238.927 32.986 M282.763 32.682 C 289.762 33.384,295.163 36.773,298.145 42.333 C 298.773 43.503,300.000 46.465,300.000 46.809 C 300.000 46.893,299.231 47.245,298.292 47.589 C 297.352 47.933,295.067 48.800,293.215 49.515 C 291.362 50.231,289.729 50.839,289.586 50.866 C 289.400 50.902,289.171 50.535,288.785 49.583 C 287.011 45.213,283.337 43.169,278.432 43.822 C 274.646 44.326,272.985 45.810,272.857 48.806 C 272.686 52.816,274.213 54.022,281.877 55.931 C 290.095 57.978,293.455 59.442,296.173 62.160 C 305.573 71.561,301.982 88.861,289.595 93.845 C 284.240 96.000,276.685 96.235,271.223 94.416 C 264.318 92.117,259.842 87.251,257.849 79.878 C 257.669 79.215,257.574 78.641,257.636 78.602 C 257.852 78.469,268.760 75.667,269.062 75.667 C 269.176 75.667,269.369 76.052,269.490 76.524 C 270.716 81.308,274.581 84.061,280.083 84.069 C 285.604 84.076,288.958 81.399,288.625 77.252 C 288.371 74.077,286.362 72.561,280.440 71.072 C 265.785 67.386,260.944 63.063,260.394 53.167 C 259.664 40.030,269.174 31.320,282.763 32.682 M191.895 34.208 C 192.033 34.690,192.562 36.633,193.068 38.526 C 193.575 40.420,194.736 44.657,195.648 47.943 C 196.560 51.229,197.731 55.492,198.250 57.417 C 198.769 59.342,200.006 63.842,200.998 67.417 C 201.990 70.992,203.041 74.817,203.333 75.917 C 203.626 77.017,204.675 80.842,205.666 84.417 C 207.943 92.637,208.333 94.084,208.333 94.314 C 208.333 94.448,206.438 94.500,201.591 94.500 L 194.849 94.500 194.676 93.875 C 194.581 93.531,193.898 90.925,193.158 88.083 C 192.418 85.242,191.755 82.729,191.684 82.500 L 191.556 82.083 182.861 82.040 C 178.079 82.016,174.167 82.033,174.167 82.077 C 174.167 82.159,171.745 91.373,171.208 93.333 L 170.912 94.417 165.361 94.461 C 160.124 94.502,159.814 94.488,159.898 94.211 C 159.947 94.049,160.520 92.004,161.171 89.667 C 162.530 84.785,166.711 69.910,169.836 58.833 C 171.012 54.663,172.287 50.125,172.667 48.750 C 173.274 46.560,176.704 34.406,176.936 33.625 C 177.017 33.353,177.515 33.333,184.333 33.333 L 191.643 33.333 191.895 34.208 M348.127 39.208 L 348.171 45.000 335.335 45.000 L 322.500 45.000 322.500 51.250 L 322.500 57.500 332.583 57.500 L 342.667 57.500 342.667 63.250 L 342.667 69.000 332.583 69.000 L 322.500 69.000 322.500 75.666 L 322.500 82.331 335.292 82.374 L 348.083 82.417 348.127 88.458 L 348.171 94.500 328.919 94.500 L 309.667 94.500 309.667 63.916 L 309.667 33.332 328.875 33.374 L 348.083 33.417 348.127 39.208 M389.500 39.417 L 389.500 45.500 382.917 45.500 L 376.333 45.500 376.333 70.000 L 376.333 94.500 369.917 94.500 L 363.500 94.500 363.500 70.000 L 363.500 45.500 356.833 45.500 L 350.167 45.500 350.167 39.417 L 350.167 33.333 369.833 33.333 L 389.500 33.333 389.500 39.417 M130.583 35.903 C 134.304 37.090,136.275 42.012,134.527 45.750 C 132.658 49.747,127.849 50.756,123.966 47.966 C 122.276 46.751,120.990 43.812,121.346 41.973 C 121.423 41.575,121.489 41.002,121.493 40.698 C 121.539 37.191,126.469 34.590,130.583 35.903 M127.515 39.051 C 125.704 39.684,126.396 42.500,128.363 42.500 C 130.385 42.500,130.781 39.865,128.880 39.060 C 128.251 38.794,128.250 38.794,127.515 39.051 M146.667 40.804 C 154.814 42.500,157.884 47.226,155.747 54.780 C 154.388 59.581,149.179 67.604,144.014 72.851 C 143.548 73.325,143.167 73.771,143.167 73.844 C 143.167 74.056,136.105 80.750,133.872 82.656 C 132.751 83.613,131.833 84.449,131.833 84.514 C 131.833 84.580,132.696 85.356,133.751 86.240 C 156.326 105.160,163.162 121.759,150.499 126.904 C 142.464 130.169,127.894 128.412,108.417 121.829 C 106.492 121.178,104.784 120.604,104.621 120.552 C 104.363 120.471,104.347 120.515,104.496 120.907 C 104.709 121.467,104.718 123.405,104.512 124.126 C 104.377 124.596,104.397 124.667,104.663 124.667 C 104.912 124.667,105.009 124.445,105.180 123.493 C 105.439 122.043,105.294 122.108,107.132 122.627 L 108.670 123.062 108.567 123.656 C 108.121 126.222,107.001 131.545,106.753 132.278 C 106.704 132.425,106.496 132.416,105.926 132.244 C 104.782 131.900,103.844 131.916,103.000 132.293 C 102.587 132.478,100.412 133.506,98.167 134.579 C 92.588 137.243,92.709 137.192,92.114 137.135 C 91.725 137.097,91.526 136.959,91.361 136.613 C 90.926 135.701,91.163 135.438,93.123 134.659 C 95.780 133.603,96.531 133.200,96.467 132.867 C 96.358 132.293,95.627 132.490,92.614 133.904 C 88.709 135.739,87.492 135.766,87.503 134.019 C 87.507 133.330,87.583 133.281,90.833 131.856 C 94.703 130.160,94.750 130.135,94.750 129.762 C 94.750 128.994,94.327 129.090,90.106 130.814 C 87.835 131.741,85.758 132.500,85.489 132.500 C 84.455 132.500,83.954 131.244,84.708 130.543 C 85.035 130.240,90.861 127.596,92.513 127.002 C 93.383 126.688,93.726 126.395,93.602 126.071 C 93.452 125.682,93.014 125.794,89.651 127.085 C 85.815 128.556,84.667 128.668,84.667 127.567 C 84.667 126.575,84.800 126.493,91.000 123.634 C 95.091 121.747,95.333 121.610,95.333 121.173 C 95.333 120.670,95.047 120.589,92.945 120.500 L 90.973 120.417 90.486 119.872 C 88.946 118.148,90.345 117.265,94.473 117.357 C 95.939 117.390,97.126 117.405,97.111 117.390 C 97.096 117.376,95.996 116.914,94.667 116.364 C 93.337 115.814,91.112 114.835,89.721 114.189 L 87.191 113.013 83.804 114.648 C 81.941 115.547,79.730 116.571,78.892 116.924 L 77.367 117.564 77.850 118.016 C 79.242 119.316,77.783 120.683,75.049 120.639 C 73.284 120.611,72.667 120.793,72.667 121.341 C 72.667 121.859,73.114 122.134,76.451 123.670 C 83.809 127.056,83.833 127.070,83.833 128.087 C 83.833 129.360,82.966 129.282,78.750 127.629 C 75.559 126.378,74.417 126.144,74.417 126.742 C 74.417 126.982,74.678 127.175,75.417 127.482 C 82.880 130.578,84.167 131.260,84.167 132.123 C 84.167 133.525,83.262 133.656,80.790 132.613 C 73.949 129.724,73.334 129.552,73.196 130.480 C 73.137 130.880,72.879 130.745,77.894 132.931 C 81.150 134.350,81.440 134.684,80.481 135.903 C 79.829 136.732,78.721 136.454,75.563 134.668 C 73.518 133.512,72.570 133.196,71.758 133.400 C 70.659 133.676,71.320 134.191,74.333 135.404 C 76.906 136.441,77.085 136.578,76.931 137.400 C 76.817 138.007,76.445 138.333,75.868 138.333 C 75.543 138.333,71.784 136.541,70.250 135.656 C 69.792 135.391,69.284 135.173,69.123 135.171 C 68.542 135.163,61.428 131.674,60.967 131.171 C 59.355 129.413,60.332 125.726,62.539 125.241 C 62.967 125.147,63.107 123.786,62.733 123.353 C 62.702 123.317,61.494 123.670,60.047 124.136 C 38.517 131.070,22.958 130.624,19.065 122.961 C 16.166 117.256,20.306 107.569,30.253 96.785 C 34.068 92.649,36.195 90.600,40.667 86.753 C 42.970 84.772,42.855 85.087,41.635 84.083 C 39.680 82.475,37.740 80.790,36.725 79.819 L 35.701 78.838 36.360 78.127 C 36.723 77.737,37.210 77.098,37.443 76.708 C 37.976 75.815,37.741 75.717,39.897 77.726 C 42.182 79.854,45.368 82.667,45.494 82.667 C 45.546 82.667,46.037 82.306,46.586 81.865 C 48.518 80.312,53.612 76.523,56.083 74.800 C 59.224 72.611,65.105 68.667,65.229 68.667 C 65.280 68.667,65.943 68.266,66.703 67.777 C 70.524 65.313,79.482 60.265,84.493 57.753 L 86.069 56.962 85.576 56.701 C 83.056 55.368,75.310 52.150,69.617 50.072 C 67.091 49.149,66.985 49.093,67.033 48.680 C 67.097 48.136,66.857 48.074,71.333 49.784 C 75.773 51.480,78.313 52.551,83.225 54.798 L 86.866 56.465 89.725 55.125 C 100.075 50.277,106.978 47.522,115.135 44.988 C 119.555 43.615,119.245 43.642,119.491 44.616 C 119.599 45.047,119.879 45.803,120.113 46.297 C 120.615 47.359,120.607 47.369,119.000 47.741 C 113.487 49.015,103.804 52.444,96.500 55.707 C 94.254 56.711,92.060 57.685,91.625 57.872 C 90.559 58.329,90.396 58.188,94.377 60.249 C 96.324 61.258,100.167 63.369,102.917 64.942 C 105.667 66.514,107.939 67.780,107.967 67.754 C 107.994 67.727,107.936 66.928,107.838 65.978 C 107.740 65.028,107.586 63.200,107.497 61.917 C 107.407 60.633,107.110 58.014,106.835 56.096 C 106.561 54.177,106.361 52.584,106.390 52.554 C 106.489 52.456,109.050 51.833,109.357 51.833 C 109.535 51.833,109.696 51.988,109.746 52.208 C 110.040 53.502,111.013 62.599,111.354 67.250 L 111.562 70.083 116.239 73.195 C 120.881 76.282,126.180 80.090,129.108 82.442 C 129.946 83.116,130.688 83.667,130.756 83.667 C 131.168 83.667,137.737 77.315,140.323 74.417 C 154.920 58.052,154.533 46.684,139.333 45.297 L 137.250 45.107 137.250 42.700 L 137.250 40.293 141.167 40.384 C 144.144 40.453,145.463 40.553,146.667 40.804 M42.583 41.675 C 47.757 42.436,53.738 43.856,59.833 45.771 C 65.460 47.538,66.167 47.814,66.167 48.243 C 66.167 48.827,66.134 48.824,63.289 47.973 C 41.142 41.347,26.824 42.509,24.582 51.116 C 23.881 53.808,24.721 57.647,26.832 61.402 C 27.292 62.220,27.649 62.900,27.625 62.915 C 27.602 62.930,27.021 63.205,26.333 63.527 C 25.646 63.848,24.723 64.424,24.282 64.806 C 23.301 65.655,23.525 65.732,22.543 64.208 C 13.993 50.941,16.864 42.488,30.333 41.267 C 32.411 41.079,40.322 41.342,42.583 41.675 M181.267 55.630 C 179.312 62.884,177.340 70.366,177.336 70.542 C 177.335 70.610,179.846 70.667,182.917 70.667 C 185.987 70.667,188.500 70.620,188.500 70.562 C 188.500 70.260,183.242 50.261,183.041 49.797 C 182.960 49.612,182.336 51.666,181.267 55.630 M87.064 60.105 C 78.432 64.519,68.379 70.333,64.598 73.097 L 64.123 73.444 64.039 81.014 C 63.993 85.177,64.010 90.349,64.078 92.507 L 64.202 96.431 66.893 98.109 C 73.799 102.414,84.426 108.092,89.644 110.265 L 90.372 110.568 92.394 109.542 C 95.231 108.103,102.421 104.032,105.516 102.113 L 108.116 100.501 108.220 98.792 C 108.781 89.542,108.701 72.049,108.083 69.080 C 107.971 68.541,100.545 64.225,92.647 60.109 L 89.878 58.666 87.064 60.105 M32.116 65.084 C 35.177 65.993,36.750 68.227,36.750 71.667 C 36.750 80.360,24.369 81.580,22.991 73.022 C 22.170 67.924,27.135 63.605,32.116 65.084 M28.609 67.805 C 28.115 68.351,28.292 69.051,29.022 69.428 C 29.732 69.795,30.500 69.221,30.500 68.322 C 30.500 67.638,29.105 67.257,28.609 67.805 M88.454 68.534 C 90.299 69.400,91.431 71.316,91.291 73.333 C 90.943 78.353,84.199 79.742,81.987 75.250 C 79.907 71.024,84.218 66.546,88.454 68.534 M111.778 74.862 C 111.945 79.355,111.898 92.674,111.703 95.917 C 111.626 97.200,111.568 98.262,111.573 98.277 C 111.736 98.719,129.833 85.067,129.833 84.503 C 129.833 83.947,114.695 72.761,112.028 71.347 L 111.640 71.141 111.778 74.862 M62.500 74.471 C 55.148 79.581,48.484 84.643,48.508 85.099 C 48.531 85.555,63.380 96.238,63.594 95.953 C 63.609 95.933,63.548 93.367,63.458 90.250 C 63.360 86.814,63.352 82.467,63.439 79.208 C 63.519 76.252,63.546 73.833,63.500 73.833 C 63.454 73.833,63.004 74.120,62.500 74.471 M76.029 76.673 C 76.952 77.124,78.992 77.924,80.562 78.450 L 83.417 79.406 85.917 79.410 C 89.518 79.417,92.814 78.604,96.333 76.842 C 99.225 75.395,99.837 75.381,100.501 76.752 C 101.137 78.066,100.862 78.439,97.500 80.808 C 93.896 83.348,93.643 83.880,93.540 89.127 C 93.454 93.554,93.599 94.824,94.496 97.489 C 95.418 100.227,95.390 101.173,94.384 101.202 C 93.417 101.229,92.899 100.699,90.482 97.206 C 87.988 93.604,87.730 93.337,86.610 93.211 C 85.228 93.055,84.820 93.425,82.365 97.055 C 80.233 100.209,79.438 101.146,78.862 101.186 C 77.347 101.290,77.200 100.544,78.166 97.667 C 79.155 94.721,79.375 92.665,79.180 88.157 C 78.993 83.825,78.659 83.237,74.837 80.509 C 71.915 78.424,71.591 77.942,72.249 76.669 C 72.884 75.440,73.509 75.440,76.029 76.673 M129.827 85.954 C 126.507 88.718,118.984 94.240,114.208 97.417 C 112.413 98.612,111.500 99.318,111.500 99.513 C 111.500 101.604,109.861 116.886,109.614 117.105 C 109.573 117.141,106.616 116.171,106.542 116.097 C 106.510 116.065,106.671 114.699,106.900 113.061 C 107.644 107.738,108.197 101.366,107.901 101.533 C 107.818 101.581,105.987 102.669,103.833 103.952 C 101.679 105.235,97.979 107.341,95.610 108.632 L 91.304 110.979 92.172 111.419 C 99.338 115.051,113.217 119.862,121.917 121.730 C 139.872 125.585,150.918 122.542,150.884 113.750 C 150.856 106.844,143.576 96.317,131.727 86.053 L 130.738 85.196 129.827 85.954 M43.788 89.032 C 26.209 104.828,20.497 119.166,29.830 124.070 C 35.397 126.995,47.039 126.537,59.592 122.899 C 61.054 122.475,62.381 122.091,62.542 122.045 C 62.702 121.999,62.833 121.806,62.833 121.617 C 62.833 120.644,64.094 119.055,65.249 118.573 L 65.773 118.354 65.474 116.219 C 65.048 113.178,64.384 107.153,64.173 104.417 C 64.074 103.133,63.952 101.620,63.901 101.055 L 63.810 100.026 60.866 98.138 C 57.242 95.814,51.381 91.726,48.207 89.309 C 45.363 87.143,45.856 87.174,43.788 89.032 M64.581 101.681 C 65.296 109.931,66.387 118.122,66.763 118.054 C 68.671 117.711,70.949 117.470,73.083 117.388 L 75.750 117.284 79.415 115.708 C 83.642 113.890,86.167 112.728,86.167 112.600 C 86.167 112.551,85.510 112.181,84.708 111.779 C 80.150 109.489,67.661 102.515,64.862 100.697 L 64.474 100.445 64.581 101.681 M169.875 114.042 C 169.934 126.371,169.920 126.184,170.868 127.264 C 172.695 129.345,176.982 129.097,178.360 126.831 C 179.096 125.621,179.167 124.418,179.167 113.071 L 179.167 102.667 182.008 102.667 L 184.850 102.667 184.792 114.708 L 184.735 126.750 184.302 128.361 C 183.159 132.612,179.526 134.844,173.750 134.844 C 169.073 134.844,166.117 133.572,164.314 130.783 C 162.640 128.193,162.502 126.883,162.501 113.542 L 162.500 102.667 166.160 102.667 L 169.820 102.667 169.875 114.042 M275.500 118.500 L 275.500 134.333 272.583 134.333 L 269.667 134.333 269.667 132.801 L 269.667 131.268 269.188 132.009 C 266.194 136.641,259.990 135.543,257.845 130.000 C 255.646 124.317,256.584 115.615,259.766 112.179 C 262.372 109.364,266.947 109.435,269.077 112.324 L 269.500 112.898 269.500 107.782 L 269.500 102.667 272.500 102.667 L 275.500 102.667 275.500 118.500 M210.129 109.083 L 210.175 111.417 208.741 111.417 C 206.729 111.417,205.771 112.406,206.672 113.552 C 209.242 116.819,207.939 121.802,203.993 123.794 C 202.136 124.731,197.903 125.193,195.802 124.688 C 194.477 124.369,193.652 126.479,194.717 127.463 C 195.274 127.977,196.130 128.145,199.583 128.416 C 205.264 128.863,206.808 129.153,207.817 129.966 C 211.708 133.096,210.311 139.636,205.351 141.515 C 202.467 142.607,193.048 142.608,190.579 141.515 C 186.558 139.737,186.213 134.734,189.997 133.065 C 190.808 132.707,190.823 132.613,190.125 132.276 C 187.277 130.900,187.857 125.949,191.109 123.875 L 192.136 123.220 191.656 122.937 C 187.307 120.368,188.052 113.483,192.932 111.146 C 194.571 110.361,196.053 110.127,198.833 110.214 C 201.034 110.282,201.541 110.362,203.257 110.912 C 203.556 111.008,203.626 110.912,203.822 110.135 C 204.521 107.362,205.481 106.647,208.417 106.713 L 210.083 106.750 210.129 109.083 M224.667 110.423 C 227.031 110.970,228.164 111.682,229.146 113.238 C 230.191 114.891,230.191 114.896,230.334 124.583 C 230.405 129.442,230.518 133.625,230.585 133.879 L 230.707 134.341 227.645 134.296 L 224.583 134.250 224.411 132.667 L 224.238 131.083 223.963 131.596 C 221.034 137.060,212.279 135.502,211.324 129.348 C 210.430 123.582,215.488 119.500,223.526 119.500 L 224.035 119.500 223.975 118.178 C 223.801 114.339,218.847 113.874,217.964 117.613 C 217.777 118.405,217.725 118.471,217.338 118.406 C 216.729 118.304,212.400 117.833,212.073 117.833 C 211.596 117.833,212.196 115.597,213.080 114.078 C 214.833 111.067,220.175 109.382,224.667 110.423 M249.583 110.723 C 252.926 112.264,253.197 113.328,253.293 125.292 L 253.365 134.333 250.099 134.333 L 246.833 134.333 246.833 126.508 C 246.833 121.309,246.770 118.388,246.645 117.803 C 246.097 115.252,243.168 115.036,242.030 117.463 L 241.583 118.417 241.534 126.375 L 241.485 134.333 238.326 134.333 L 235.167 134.333 235.167 122.500 L 235.167 110.667 238.083 110.667 L 241.000 110.667 241.000 112.283 L 241.000 113.899 241.516 113.074 C 243.266 110.282,246.550 109.325,249.583 110.723 M292.617 110.484 C 295.500 111.233,297.211 112.773,297.849 115.194 C 297.972 115.658,298.085 119.043,298.168 124.667 C 298.238 129.479,298.351 133.625,298.418 133.879 L 298.540 134.341 295.395 134.295 L 292.250 134.250 292.083 132.815 L 291.917 131.380 290.784 132.598 C 285.898 137.854,278.074 133.964,279.153 126.814 C 279.809 122.463,282.866 120.400,289.781 119.642 L 291.705 119.431 291.633 118.067 C 291.523 115.976,290.782 115.168,288.969 115.167 C 287.124 115.166,285.935 116.105,285.540 117.877 L 285.417 118.431 282.591 118.125 C 279.259 117.765,279.553 117.938,279.892 116.545 C 281.095 111.609,286.690 108.944,292.617 110.484 M196.917 114.429 C 194.581 115.647,194.432 119.360,196.674 120.504 C 199.928 122.164,203.061 118.247,200.911 115.206 C 200.242 114.259,198.058 113.834,196.917 114.429 M265.398 115.484 C 262.924 116.993,262.476 126.690,264.775 128.978 C 266.192 130.388,268.177 129.702,269.025 127.509 C 269.465 126.373,269.653 121.529,269.353 119.088 C 268.959 115.874,267.275 114.340,265.398 115.484 M222.014 123.509 C 219.253 124.232,218.083 125.387,218.083 127.390 C 218.083 129.324,218.807 130.168,220.466 130.166 C 222.599 130.163,224.000 128.004,224.000 124.720 C 224.000 122.909,224.092 122.965,222.014 123.509 M290.083 123.399 C 287.134 124.119,285.508 125.745,285.716 127.767 C 285.887 129.416,286.638 130.167,288.118 130.167 C 290.354 130.167,291.667 128.188,291.667 124.818 C 291.667 122.937,291.732 122.996,290.083 123.399 M106.552 134.906 C 113.031 138.151,110.751 147.750,103.500 147.750 C 99.415 147.750,96.667 144.983,96.667 140.870 C 96.667 135.798,101.958 132.606,106.552 134.906 M193.407 134.811 C 192.940 135.499,192.891 136.139,193.253 136.839 C 194.226 138.721,202.949 138.705,203.924 136.819 C 204.890 134.950,203.469 134.400,197.366 134.281 L 193.815 134.212 193.407 134.811 M103.824 134.831 C 101.010 135.641,101.428 140.589,104.308 140.581 C 106.363 140.575,107.621 138.488,106.828 136.401 C 106.385 135.237,104.974 134.500,103.824 134.831 M76.412 148.750 C 82.607 158.239,89.895 158.395,95.959 149.167 C 96.471 148.387,96.937 147.695,96.993 147.627 C 97.049 147.560,97.543 147.839,98.090 148.249 C 98.636 148.658,99.477 149.154,99.958 149.349 C 101.049 149.793,101.061 149.668,99.676 152.209 C 94.215 162.230,87.994 165.077,81.847 160.369 C 78.283 157.639,72.552 148.096,74.169 147.583 C 74.354 147.524,74.462 147.406,74.409 147.321 C 74.357 147.236,74.388 147.167,74.479 147.167 C 74.570 147.167,74.694 147.009,74.755 146.817 C 74.890 146.391,74.812 146.300,76.412 148.750 " stroke="none" fill="#fbfbfb" fill-rule="evenodd"></path><path id="path3" d="M85.231 6.675 C 84.309 6.968,81.976 8.334,81.378 8.932 C 81.246 9.064,80.877 9.371,80.558 9.614 C 79.424 10.479,76.414 14.857,75.090 17.568 C 72.884 22.086,70.224 28.991,70.638 29.129 C 70.735 29.162,70.780 29.277,70.739 29.386 C 70.685 29.525,70.895 29.567,71.456 29.528 L 72.250 29.473 72.730 28.278 C 76.150 19.762,80.787 14.392,85.336 13.677 C 90.510 12.863,95.898 18.226,99.851 28.121 C 100.518 29.791,101.090 31.132,101.122 31.100 C 101.154 31.068,100.982 30.527,100.741 29.896 C 99.873 27.626,99.837 27.503,100.050 27.544 C 100.287 27.591,100.210 26.321,99.961 26.072 C 99.905 26.016,99.899 25.727,99.947 25.430 C 100.005 25.071,99.916 24.644,99.684 24.163 C 99.491 23.764,99.333 23.251,99.333 23.022 C 99.333 22.586,98.992 21.476,98.815 21.333 C 98.758 21.287,98.538 20.762,98.326 20.167 C 98.114 19.571,97.841 18.935,97.720 18.755 C 97.599 18.574,97.500 18.311,97.499 18.171 C 97.499 18.031,97.274 17.677,96.999 17.384 C 96.725 17.091,96.500 16.772,96.500 16.676 C 96.500 16.579,96.433 16.500,96.351 16.500 C 96.270 16.500,96.155 16.310,96.097 16.078 C 96.039 15.845,95.805 15.571,95.579 15.468 C 95.126 15.261,95.053 15.074,95.375 14.944 C 95.490 14.897,95.415 14.854,95.208 14.846 C 94.994 14.839,94.833 14.727,94.833 14.586 C 94.833 14.341,92.034 11.500,91.793 11.500 C 91.724 11.500,91.387 11.236,91.045 10.913 C 90.702 10.590,90.083 10.164,89.669 9.966 C 89.255 9.768,88.879 9.559,88.833 9.502 C 88.787 9.445,88.506 9.299,88.208 9.179 C 87.910 9.058,87.667 8.909,87.667 8.848 C 87.667 8.786,87.029 8.519,86.250 8.255 C 85.471 7.990,84.833 7.712,84.833 7.637 C 84.833 7.562,84.754 7.500,84.657 7.500 C 84.560 7.500,84.527 7.575,84.583 7.667 C 84.734 7.910,84.513 7.870,84.249 7.606 C 84.056 7.414,84.078 7.350,84.386 7.193 C 85.259 6.747,85.850 6.613,87.417 6.503 L 89.083 6.386 87.667 6.369 C 86.687 6.357,85.936 6.452,85.231 6.675 M92.417 7.950 C 92.508 8.037,92.921 8.352,93.333 8.652 L 94.083 9.197 93.500 8.670 C 92.989 8.209,91.982 7.539,92.417 7.950 M97.041 12.667 C 98.326 14.472,98.898 15.410,100.007 17.531 C 100.549 18.568,100.994 19.348,100.996 19.265 C 101.011 18.677,97.793 13.279,96.665 12.000 C 96.382 11.679,96.551 11.979,97.041 12.667 M233.042 32.623 C 233.569 32.656,234.431 32.656,234.958 32.623 C 235.485 32.590,235.054 32.563,234.000 32.563 C 232.946 32.563,232.515 32.590,233.042 32.623 M278.875 32.623 C 279.402 32.656,280.265 32.656,280.792 32.623 C 281.319 32.590,280.887 32.563,279.833 32.563 C 278.779 32.563,278.348 32.590,278.875 32.623 M348.075 39.250 C 348.075 42.458,348.097 43.747,348.125 42.114 C 348.152 40.481,348.152 37.856,348.125 36.281 C 348.097 34.706,348.075 36.042,348.075 39.250 M106.195 34.333 C 106.203 34.766,106.466 35.478,106.472 35.083 C 106.474 34.900,106.412 34.600,106.333 34.417 C 106.246 34.212,106.192 34.180,106.195 34.333 M126.333 35.728 C 123.804 36.468,121.615 38.894,121.612 40.960 C 121.610 42.131,122.964 44.665,124.049 45.523 C 126.887 47.766,130.794 47.714,132.821 45.406 C 134.103 43.945,134.443 42.581,134.279 39.555 C 134.146 37.115,129.402 34.830,126.333 35.728 M218.667 38.583 C 218.262 38.996,217.968 39.333,218.014 39.333 C 218.060 39.333,218.428 38.996,218.833 38.583 C 219.238 38.171,219.532 37.833,219.486 37.833 C 219.440 37.833,219.072 38.171,218.667 38.583 M129.350 38.880 C 130.862 39.896,130.463 42.171,128.719 42.490 C 126.757 42.849,125.322 40.440,126.650 39.018 C 127.278 38.346,128.465 38.286,129.350 38.880 M103.523 39.333 C 103.523 39.471,103.588 39.733,103.667 39.917 C 103.757 40.127,103.810 40.158,103.810 40.000 C 103.810 39.862,103.745 39.600,103.667 39.417 C 103.576 39.207,103.523 39.176,103.523 39.333 M137.272 40.465 C 137.227 40.537,137.254 41.110,137.332 41.736 C 137.409 42.363,137.448 42.960,137.417 43.063 C 137.386 43.166,137.319 43.666,137.266 44.175 L 137.172 45.100 139.330 45.295 C 157.242 46.919,154.299 62.371,132.250 82.466 L 130.750 83.833 131.167 84.162 C 131.696 84.581,131.479 84.702,133.864 82.667 C 155.795 63.951,162.575 46.765,149.992 41.791 C 147.080 40.640,137.764 39.669,137.272 40.465 M121.667 44.469 C 121.667 44.901,122.540 46.460,123.187 47.181 L 123.847 47.917 123.232 47.083 C 122.894 46.625,122.403 45.800,122.142 45.250 C 121.881 44.700,121.667 44.348,121.667 44.469 M286.167 45.719 C 286.167 45.748,286.410 45.991,286.708 46.260 L 287.250 46.750 286.760 46.208 C 286.304 45.703,286.167 45.590,286.167 45.719 M119.833 47.287 L 119.250 47.511 119.821 47.420 C 120.379 47.332,120.626 47.219,120.486 47.115 C 120.448 47.087,120.154 47.164,119.833 47.287 M133.158 47.625 L 132.583 48.250 133.208 47.676 C 133.790 47.141,133.910 47.000,133.783 47.000 C 133.755 47.000,133.474 47.281,133.158 47.625 M106.531 47.947 C 106.136 48.087,105.842 48.231,105.878 48.267 C 105.954 48.343,107.500 47.835,107.500 47.734 C 107.500 47.630,107.310 47.672,106.531 47.947 M272.717 49.167 C 272.717 49.671,272.748 49.877,272.786 49.625 C 272.824 49.373,272.824 48.960,272.786 48.708 C 272.748 48.456,272.717 48.663,272.717 49.167 M109.198 50.447 C 108.803 50.587,108.509 50.731,108.545 50.767 C 108.581 50.803,109.017 50.688,109.513 50.512 C 110.010 50.335,110.304 50.191,110.167 50.192 C 110.029 50.193,109.593 50.307,109.198 50.447 M107.115 51.197 C 106.582 51.383,106.175 51.564,106.211 51.600 C 106.286 51.675,108.333 51.002,108.333 50.901 C 108.333 50.793,108.143 50.839,107.115 51.197 M98.000 51.417 C 97.771 51.548,97.658 51.655,97.750 51.655 C 97.842 51.655,98.104 51.548,98.333 51.417 C 98.563 51.286,98.675 51.178,98.583 51.178 C 98.492 51.178,98.229 51.286,98.000 51.417 M95.373 52.539 C 94.341 53.004,93.523 53.412,93.556 53.445 C 93.616 53.504,97.330 51.892,97.480 51.743 C 97.680 51.542,97.093 51.764,95.373 52.539 M105.250 51.923 C 104.833 52.123,104.819 52.146,105.167 52.062 C 105.639 51.946,106.170 51.676,105.917 51.679 C 105.825 51.681,105.525 51.790,105.250 51.923 M106.833 52.417 C 106.513 52.540,106.362 52.641,106.500 52.641 C 106.638 52.641,107.013 52.540,107.333 52.417 C 107.654 52.293,107.804 52.192,107.667 52.192 C 107.529 52.192,107.154 52.293,106.833 52.417 M94.750 56.244 C 93.925 56.644,93.325 56.972,93.417 56.973 C 93.508 56.975,94.258 56.650,95.083 56.252 C 95.908 55.854,96.508 55.525,96.417 55.522 C 96.325 55.519,95.575 55.844,94.750 56.244 M251.708 56.615 C 251.869 56.657,252.131 56.657,252.292 56.615 C 252.452 56.573,252.321 56.539,252.000 56.539 C 251.679 56.539,251.548 56.573,251.708 56.615 M249.208 56.782 C 249.369 56.823,249.631 56.823,249.792 56.782 C 249.952 56.740,249.821 56.705,249.500 56.705 C 249.179 56.705,249.048 56.740,249.208 56.782 M247.042 56.948 C 247.202 56.990,247.465 56.990,247.625 56.948 C 247.785 56.906,247.654 56.872,247.333 56.872 C 247.012 56.872,246.881 56.906,247.042 56.948 M92.167 57.417 C 91.754 57.638,91.492 57.818,91.583 57.818 C 91.675 57.818,92.087 57.638,92.500 57.417 C 92.912 57.196,93.175 57.015,93.083 57.015 C 92.992 57.015,92.579 57.196,92.167 57.417 M84.125 57.927 C 83.506 58.245,83.000 58.542,83.000 58.588 C 83.000 58.662,85.317 57.553,85.486 57.397 C 85.714 57.188,85.099 57.427,84.125 57.927 M342.575 63.250 C 342.575 66.458,342.597 67.747,342.625 66.114 C 342.652 64.481,342.652 61.856,342.625 60.281 C 342.597 58.706,342.575 60.042,342.575 63.250 M85.292 60.760 C 84.123 61.352,83.167 61.873,83.167 61.919 C 83.167 61.994,87.483 59.888,87.653 59.731 C 87.916 59.487,87.126 59.831,85.292 60.760 M79.125 60.595 C 78.502 60.933,78.540 61.074,79.167 60.750 C 79.442 60.608,79.667 60.456,79.667 60.412 C 79.667 60.305,79.649 60.311,79.125 60.595 M76.250 62.188 C 75.242 62.750,74.342 63.286,74.250 63.380 C 74.043 63.590,73.976 63.624,76.292 62.342 C 77.890 61.457,78.344 61.167,78.125 61.167 C 78.102 61.167,77.258 61.626,76.250 62.188 M296.083 62.167 C 296.535 62.625,296.942 63.000,296.987 63.000 C 297.033 63.000,296.701 62.625,296.250 62.167 C 295.799 61.708,295.392 61.333,295.346 61.333 C 295.300 61.333,295.632 61.708,296.083 62.167 M107.542 62.417 C 107.539 62.783,107.592 63.533,107.660 64.083 C 107.774 64.997,107.785 65.018,107.792 64.333 C 107.797 63.921,107.743 63.171,107.674 62.667 C 107.565 61.880,107.546 61.844,107.542 62.417 M82.125 62.428 C 81.690 62.654,81.333 62.877,81.333 62.923 C 81.333 62.968,81.708 62.816,82.167 62.583 C 82.625 62.351,83.000 62.125,83.000 62.081 C 83.000 61.970,83.015 61.964,82.125 62.428 M209.892 63.917 C 209.892 64.742,209.920 65.100,209.955 64.713 C 209.990 64.327,209.990 63.652,209.956 63.213 C 209.922 62.775,209.893 63.092,209.892 63.917 M223.895 64.333 C 223.895 65.296,223.923 65.690,223.956 65.208 C 223.990 64.727,223.990 63.940,223.956 63.458 C 223.923 62.977,223.895 63.371,223.895 64.333 M75.471 66.130 C 74.401 66.747,73.464 67.320,73.388 67.403 C 73.219 67.588,73.153 67.623,75.542 66.258 C 77.193 65.314,77.703 64.981,77.458 65.004 C 77.435 65.006,76.541 65.513,75.471 66.130 M107.883 66.000 C 107.883 66.504,107.915 66.710,107.953 66.458 C 107.991 66.206,107.991 65.794,107.953 65.542 C 107.915 65.290,107.883 65.496,107.883 66.000 M67.750 67.185 C 66.833 67.745,66.008 68.283,65.917 68.382 C 65.739 68.573,65.803 68.537,68.042 67.175 C 69.302 66.409,69.643 66.166,69.458 66.167 C 69.435 66.167,68.667 66.625,67.750 67.185 M108.039 67.500 C 108.039 67.821,108.073 67.952,108.115 67.792 C 108.157 67.631,108.157 67.369,108.115 67.208 C 108.073 67.048,108.039 67.179,108.039 67.500 M85.958 68.118 C 86.165 68.157,86.502 68.157,86.708 68.118 C 86.915 68.078,86.746 68.045,86.333 68.045 C 85.921 68.045,85.752 68.078,85.958 68.118 M111.372 68.667 C 111.372 68.987,111.406 69.119,111.448 68.958 C 111.490 68.798,111.490 68.535,111.448 68.375 C 111.406 68.215,111.372 68.346,111.372 68.667 M108.165 70.216 L 108.247 71.583 108.298 70.349 C 108.326 69.671,108.289 69.056,108.216 68.982 C 108.143 68.909,108.120 69.464,108.165 70.216 M61.174 71.351 C 59.299 72.626,57.687 73.753,57.591 73.857 C 57.495 73.960,59.007 72.983,60.951 71.685 C 62.895 70.387,64.531 69.252,64.586 69.163 C 64.730 68.929,64.886 68.829,61.174 71.351 M67.917 70.682 C 66.711 71.450,65.665 72.252,66.667 71.640 C 68.741 70.374,69.526 69.833,69.292 69.833 C 69.269 69.833,68.650 70.215,67.917 70.682 M111.557 72.417 C 111.558 73.150,111.587 73.429,111.622 73.037 C 111.657 72.645,111.657 72.045,111.621 71.704 C 111.585 71.363,111.557 71.683,111.557 72.417 M108.393 73.167 C 108.393 74.037,108.422 74.394,108.456 73.958 C 108.490 73.523,108.490 72.810,108.456 72.375 C 108.422 71.940,108.393 72.296,108.393 73.167 M63.550 74.833 C 63.550 75.337,63.581 75.544,63.619 75.292 C 63.658 75.040,63.658 74.627,63.619 74.375 C 63.581 74.123,63.550 74.329,63.550 74.833 M60.478 75.632 C 59.321 76.430,58.121 77.294,57.812 77.552 C 57.503 77.809,57.700 77.708,58.250 77.326 C 58.800 76.944,60.019 76.113,60.958 75.479 C 62.388 74.514,62.876 74.132,62.625 74.174 C 62.602 74.177,61.636 74.834,60.478 75.632 M111.733 76.667 C 111.733 77.996,111.759 78.540,111.790 77.875 C 111.822 77.210,111.822 76.123,111.790 75.458 C 111.759 74.794,111.733 75.337,111.733 76.667 M108.565 77.000 C 108.565 78.237,108.592 78.744,108.624 78.125 C 108.656 77.506,108.656 76.494,108.624 75.875 C 108.592 75.256,108.565 75.762,108.565 77.000 M64.042 76.250 C 64.044 76.617,64.078 76.747,64.118 76.540 C 64.158 76.332,64.156 76.032,64.115 75.873 C 64.073 75.714,64.040 75.883,64.042 76.250 M53.180 76.919 C 52.499 77.417,51.862 77.913,51.763 78.022 C 51.539 78.268,53.405 76.984,54.083 76.424 C 54.942 75.716,54.471 75.974,53.180 76.919 M53.417 80.767 C 52.500 81.463,51.563 82.220,51.333 82.450 C 50.978 82.808,54.631 80.074,55.075 79.651 C 55.530 79.217,54.906 79.637,53.417 80.767 M47.542 81.174 C 46.510 81.996,45.667 82.708,45.667 82.758 C 45.667 82.853,48.685 80.508,49.245 79.978 C 49.943 79.318,49.343 79.739,47.542 81.174 M63.406 84.500 C 63.406 87.021,63.430 88.052,63.458 86.792 C 63.486 85.531,63.486 83.469,63.458 82.208 C 63.430 80.948,63.406 81.979,63.406 84.500 M111.906 84.583 C 111.906 87.058,111.929 88.094,111.958 86.885 C 111.986 85.676,111.986 83.651,111.958 82.385 C 111.930 81.119,111.906 82.108,111.906 84.583 M63.902 84.750 C 63.902 86.400,63.927 87.052,63.958 86.200 C 63.988 85.347,63.988 83.997,63.957 83.200 C 63.927 82.402,63.902 83.100,63.902 84.750 M177.167 81.954 C 185.082 82.070,191.628 82.072,191.558 81.958 C 191.515 81.890,187.566 81.850,182.782 81.871 C 177.998 81.892,175.471 81.929,177.167 81.954 M348.075 88.500 C 348.075 91.846,348.098 93.215,348.125 91.542 C 348.152 89.869,348.152 87.131,348.125 85.458 C 348.098 83.785,348.075 85.154,348.075 88.500 M130.311 84.863 C 130.496 85.109,130.228 85.378,128.094 87.089 C 126.759 88.159,125.667 89.076,125.667 89.127 C 125.667 89.177,125.798 89.106,125.958 88.969 C 126.119 88.832,127.225 87.945,128.417 86.998 C 129.608 86.051,130.616 85.250,130.657 85.218 C 130.697 85.185,130.589 85.029,130.416 84.871 C 130.139 84.618,130.127 84.617,130.311 84.863 M127.917 86.269 C 125.915 87.968,125.557 88.332,126.923 87.281 C 127.977 86.469,129.810 84.846,129.667 84.851 C 129.621 84.853,128.833 85.491,127.917 86.269 M41.160 86.376 C 40.293 87.109,38.758 88.473,37.750 89.408 C 36.742 90.342,35.701 91.289,35.436 91.512 C 34.206 92.549,29.744 97.277,27.818 99.583 C 7.157 124.333,20.905 135.925,57.750 124.820 C 59.308 124.350,60.621 123.926,60.667 123.877 C 60.789 123.746,60.135 123.902,58.123 124.482 C 55.949 125.110,56.087 125.109,56.066 124.500 C 56.053 124.155,56.127 124.000,56.302 124.000 C 56.441 124.000,56.519 123.964,56.475 123.919 C 56.431 123.875,55.199 124.096,53.739 124.410 C 46.186 126.034,39.453 126.420,34.333 125.524 C 19.759 122.974,23.190 108.142,42.496 90.240 C 44.153 88.703,45.489 87.391,45.463 87.323 C 45.438 87.256,44.814 86.716,44.077 86.122 L 42.737 85.044 41.160 86.376 M79.217 89.167 C 79.217 89.671,79.248 89.877,79.286 89.625 C 79.324 89.373,79.324 88.960,79.286 88.708 C 79.248 88.456,79.217 88.662,79.217 89.167 M248.742 89.708 L 248.083 90.417 248.792 89.758 C 249.450 89.145,249.577 89.000,249.450 89.000 C 249.423 89.000,249.105 89.319,248.742 89.708 M121.303 91.475 C 119.774 92.635,118.462 93.656,118.386 93.745 C 118.311 93.833,118.362 93.827,118.500 93.730 C 120.789 92.124,124.521 89.223,124.135 89.350 C 124.107 89.360,122.832 90.316,121.303 91.475 M93.390 90.750 C 93.391 91.483,93.420 91.763,93.456 91.371 C 93.491 90.979,93.490 90.379,93.454 90.037 C 93.419 89.696,93.390 90.017,93.390 90.750 M123.083 90.930 C 122.167 91.620,121.342 92.271,121.250 92.376 C 121.040 92.617,121.124 92.558,123.208 91.012 C 124.605 89.976,124.989 89.651,124.792 89.671 C 124.769 89.673,124.000 90.240,123.083 90.930 M111.733 92.250 C 111.734 93.625,111.759 94.165,111.791 93.451 C 111.822 92.736,111.822 91.611,111.790 90.951 C 111.759 90.290,111.733 90.875,111.733 92.250 M108.565 92.583 C 108.565 93.775,108.592 94.241,108.624 93.618 C 108.656 92.996,108.656 92.021,108.623 91.451 C 108.591 90.882,108.564 91.392,108.565 92.583 M79.205 92.167 C 79.205 92.487,79.240 92.619,79.282 92.458 C 79.323 92.298,79.323 92.035,79.282 91.875 C 79.240 91.715,79.205 91.846,79.205 92.167 M64.045 93.333 C 64.045 93.746,64.078 93.915,64.118 93.708 C 64.157 93.502,64.157 93.165,64.118 92.958 C 64.078 92.752,64.045 92.921,64.045 93.333 M63.548 94.083 C 63.549 94.542,63.581 94.709,63.620 94.456 C 63.658 94.203,63.657 93.828,63.617 93.623 C 63.578 93.418,63.546 93.625,63.548 94.083 M117.583 94.265 L 117.083 94.694 117.625 94.336 C 117.923 94.139,118.167 93.945,118.167 93.905 C 118.167 93.781,118.096 93.824,117.583 94.265 M115.000 96.635 L 111.417 99.084 111.403 99.834 L 111.389 100.583 111.454 99.876 L 111.518 99.169 115.008 96.820 C 117.942 94.845,118.942 94.117,118.635 94.177 C 118.607 94.182,116.971 95.289,115.000 96.635 M116.417 95.098 L 115.917 95.528 116.458 95.169 C 116.756 94.972,117.000 94.778,117.000 94.739 C 117.000 94.614,116.929 94.657,116.417 95.098 M108.393 96.500 C 108.393 97.371,108.422 97.727,108.456 97.292 C 108.490 96.856,108.490 96.144,108.456 95.708 C 108.422 95.273,108.393 95.629,108.393 96.500 M111.560 96.500 C 111.560 97.371,111.588 97.727,111.623 97.292 C 111.657 96.856,111.657 96.144,111.623 95.708 C 111.588 95.273,111.560 95.629,111.560 96.500 M232.208 95.615 C 232.369 95.657,232.631 95.657,232.792 95.615 C 232.952 95.573,232.821 95.539,232.500 95.539 C 232.179 95.539,232.048 95.573,232.208 95.615 M235.042 95.615 C 235.202 95.657,235.465 95.657,235.625 95.615 C 235.785 95.573,235.654 95.539,235.333 95.539 C 235.012 95.539,234.881 95.573,235.042 95.615 M277.460 95.618 C 277.668 95.658,277.968 95.656,278.127 95.615 C 278.286 95.573,278.117 95.540,277.750 95.542 C 277.383 95.544,277.253 95.578,277.460 95.618 M280.627 95.618 C 280.834 95.658,281.134 95.656,281.294 95.615 C 281.453 95.573,281.283 95.540,280.917 95.542 C 280.550 95.544,280.420 95.578,280.627 95.618 M113.706 96.902 C 112.281 97.869,111.565 98.417,112.167 98.080 C 112.746 97.756,115.333 95.985,115.333 95.912 C 115.333 95.795,115.367 95.774,113.706 96.902 M108.198 99.333 L 108.162 100.583 105.831 101.983 C 104.549 102.752,103.500 103.411,103.500 103.447 C 103.500 103.545,104.062 103.227,106.114 101.973 C 107.139 101.346,108.008 100.833,108.044 100.833 C 108.081 100.833,108.090 101.265,108.064 101.792 C 108.019 102.730,108.022 102.726,108.181 101.583 C 108.270 100.942,108.319 99.892,108.288 99.250 L 108.233 98.083 108.198 99.333 M107.208 101.686 C 106.640 102.050,106.456 102.294,106.958 102.018 C 107.341 101.808,107.940 101.345,107.833 101.341 C 107.787 101.340,107.506 101.495,107.208 101.686 M111.217 102.167 C 111.217 102.671,111.248 102.877,111.286 102.625 C 111.324 102.373,111.324 101.960,111.286 101.708 C 111.248 101.456,111.217 101.662,111.217 102.167 M162.579 113.667 C 162.579 119.763,162.599 122.256,162.625 119.208 C 162.650 116.160,162.650 111.173,162.625 108.125 C 162.599 105.077,162.579 107.571,162.579 113.667 M111.042 104.417 C 111.044 104.783,111.078 104.914,111.118 104.706 C 111.158 104.499,111.156 104.199,111.115 104.040 C 111.073 103.880,111.040 104.050,111.042 104.417 M102.958 104.262 C 102.335 104.600,102.373 104.741,103.000 104.417 C 103.275 104.274,103.500 104.123,103.500 104.079 C 103.500 103.972,103.482 103.978,102.958 104.262 M100.706 105.563 C 99.254 106.397,98.414 106.969,99.333 106.499 C 100.763 105.767,102.596 104.635,102.292 104.672 C 102.269 104.674,101.555 105.076,100.706 105.563 M97.366 106.903 C 95.141 108.133,94.266 108.698,95.667 108.001 C 97.394 107.141,99.972 105.625,99.625 105.672 C 99.602 105.676,98.586 106.230,97.366 106.903 M110.872 106.333 C 110.872 106.654,110.906 106.785,110.948 106.625 C 110.990 106.465,110.990 106.202,110.948 106.042 C 110.906 105.881,110.872 106.013,110.872 106.333 M98.292 106.929 C 97.669 107.267,97.707 107.407,98.333 107.083 C 98.608 106.941,98.833 106.789,98.833 106.746 C 98.833 106.638,98.815 106.645,98.292 106.929 M97.125 107.595 C 96.502 107.933,96.540 108.074,97.167 107.750 C 97.442 107.608,97.667 107.456,97.667 107.412 C 97.667 107.305,97.649 107.311,97.125 107.595 M92.458 110.094 C 91.656 110.502,91.000 110.874,91.000 110.920 C 91.000 110.966,91.675 110.664,92.500 110.250 C 93.325 109.836,94.000 109.460,94.000 109.415 C 94.000 109.302,94.078 109.268,92.458 110.094 M225.000 110.667 C 225.570 110.849,226.008 110.849,225.583 110.667 C 225.400 110.588,225.100 110.526,224.917 110.528 C 224.649 110.532,224.665 110.559,225.000 110.667 M285.083 110.833 C 284.625 111.002,284.362 111.141,284.500 111.141 C 284.637 111.141,285.125 111.002,285.583 110.833 C 286.042 110.664,286.304 110.526,286.167 110.526 C 286.029 110.526,285.542 110.664,285.083 110.833 M236.542 110.791 C 237.344 110.821,238.656 110.821,239.458 110.791 C 240.260 110.760,239.604 110.735,238.000 110.735 C 236.396 110.735,235.740 110.760,236.542 110.791 M207.750 111.249 C 208.129 111.378,210.228 111.451,209.917 111.325 C 209.733 111.251,209.133 111.191,208.583 111.192 C 208.033 111.192,207.658 111.218,207.750 111.249 M85.667 112.917 C 85.438 113.048,85.325 113.155,85.417 113.155 C 85.508 113.155,85.771 113.048,86.000 112.917 C 86.229 112.786,86.342 112.678,86.250 112.678 C 86.158 112.678,85.896 112.786,85.667 112.917 M82.500 114.417 C 82.271 114.548,82.158 114.655,82.250 114.655 C 82.342 114.655,82.604 114.548,82.833 114.417 C 83.063 114.286,83.175 114.178,83.083 114.178 C 82.992 114.178,82.729 114.286,82.500 114.417 M82.250 115.167 C 81.150 115.702,80.325 116.142,80.417 116.145 C 80.508 116.147,81.483 115.710,82.583 115.173 C 83.683 114.636,84.508 114.196,84.417 114.195 C 84.325 114.194,83.350 114.631,82.250 115.167 M80.667 115.250 C 80.438 115.381,80.325 115.488,80.417 115.488 C 80.508 115.488,80.771 115.381,81.000 115.250 C 81.229 115.119,81.342 115.012,81.250 115.012 C 81.158 115.012,80.896 115.119,80.667 115.250 M77.796 116.462 C 76.814 116.885,76.038 117.260,76.072 117.294 C 76.133 117.355,79.667 115.889,79.814 115.741 C 80.003 115.552,79.449 115.751,77.796 116.462 M297.883 116.500 C 297.883 117.004,297.915 117.210,297.953 116.958 C 297.991 116.706,297.991 116.294,297.953 116.042 C 297.915 115.790,297.883 115.996,297.883 116.500 M253.053 117.167 C 253.053 117.763,253.084 118.006,253.121 117.708 C 253.158 117.410,253.158 116.923,253.121 116.625 C 253.084 116.327,253.053 116.571,253.053 117.167 M79.167 116.583 C 78.938 116.714,78.825 116.822,78.917 116.822 C 79.008 116.822,79.271 116.714,79.500 116.583 C 79.729 116.452,79.842 116.345,79.750 116.345 C 79.658 116.345,79.396 116.452,79.167 116.583 M207.779 118.059 C 207.722 118.733,207.630 119.426,207.575 119.600 C 207.486 119.880,207.496 119.884,207.655 119.638 C 207.839 119.354,208.118 116.833,207.966 116.833 C 207.920 116.833,207.836 117.385,207.779 118.059 M77.625 117.262 C 76.979 117.613,77.052 117.734,77.708 117.400 C 78.337 117.080,78.448 116.997,78.236 117.007 C 78.152 117.010,77.877 117.125,77.625 117.262 M91.360 117.499 C 91.053 117.572,90.716 117.723,90.610 117.836 C 90.471 117.983,90.534 117.979,90.833 117.821 C 91.085 117.688,92.175 117.559,93.583 117.495 L 95.917 117.389 93.917 117.378 C 92.817 117.372,91.666 117.427,91.360 117.499 M96.375 117.619 C 96.627 117.658,97.040 117.658,97.292 117.619 C 97.544 117.581,97.337 117.550,96.833 117.550 C 96.329 117.550,96.123 117.581,96.375 117.619 M298.077 125.000 C 298.077 129.171,298.098 130.877,298.125 128.792 C 298.151 126.706,298.151 123.294,298.125 121.208 C 298.098 119.123,298.077 120.829,298.077 125.000 M90.542 119.897 C 91.130 120.437,91.877 120.572,93.196 120.376 L 94.250 120.219 92.725 120.235 C 91.386 120.248,91.132 120.203,90.641 119.863 L 90.083 119.476 90.542 119.897 M199.917 120.539 C 199.733 120.647,199.021 120.783,198.333 120.842 L 197.083 120.950 198.130 120.975 C 199.063 120.997,200.333 120.680,200.333 120.425 C 200.333 120.303,200.306 120.311,199.917 120.539 M284.607 120.605 C 283.408 120.973,283.744 121.025,285.001 120.666 C 285.596 120.496,285.933 120.357,285.750 120.357 C 285.567 120.357,285.052 120.468,284.607 120.605 M94.684 121.931 C 94.372 122.152,94.199 122.333,94.299 122.333 C 94.400 122.333,94.692 122.148,94.949 121.922 C 95.538 121.404,95.420 121.408,94.684 121.931 M61.417 122.419 C 60.775 122.631,60.336 122.811,60.441 122.819 C 60.694 122.838,62.833 122.175,62.833 122.077 C 62.833 121.964,62.699 121.996,61.417 122.419 M93.333 122.583 C 93.104 122.714,92.992 122.822,93.083 122.822 C 93.175 122.822,93.438 122.714,93.667 122.583 C 93.896 122.452,94.008 122.345,93.917 122.345 C 93.825 122.345,93.563 122.452,93.333 122.583 M87.167 125.500 C 85.929 126.132,84.992 126.649,85.083 126.649 C 85.175 126.649,86.263 126.132,87.500 125.500 C 88.737 124.868,89.675 124.351,89.583 124.351 C 89.492 124.351,88.404 124.868,87.167 125.500 M162.712 125.500 C 162.712 125.912,162.745 126.081,162.784 125.875 C 162.824 125.669,162.824 125.331,162.784 125.125 C 162.745 124.919,162.712 125.087,162.712 125.500 M92.031 125.943 C 91.636 126.085,91.343 126.232,91.380 126.269 C 91.418 126.306,91.769 126.224,92.162 126.085 C 93.845 125.491,94.367 126.191,92.792 126.929 C 92.310 127.154,92.104 127.292,92.333 127.235 C 93.161 127.030,93.750 126.582,93.750 126.157 C 93.750 125.644,93.092 125.562,92.031 125.943 M217.850 127.347 C 217.859 127.752,217.927 128.271,218.001 128.500 C 218.081 128.750,218.099 128.483,218.044 127.833 C 217.938 126.567,217.826 126.287,217.850 127.347 M257.195 127.750 C 257.192 127.933,257.255 128.233,257.333 128.417 C 257.516 128.841,257.516 128.403,257.333 127.833 C 257.226 127.498,257.199 127.482,257.195 127.750 M87.333 129.250 C 87.104 129.381,86.992 129.488,87.083 129.488 C 87.175 129.488,87.438 129.381,87.667 129.250 C 87.896 129.119,88.008 129.012,87.917 129.012 C 87.825 129.012,87.563 129.119,87.333 129.250 M93.718 129.131 C 93.609 129.201,93.810 129.258,94.167 129.258 C 94.524 129.258,94.725 129.201,94.615 129.131 C 94.506 129.062,94.304 129.005,94.167 129.005 C 94.029 129.005,93.827 129.062,93.718 129.131 M90.619 130.369 C 89.721 130.740,89.015 131.071,89.049 131.105 C 89.113 131.169,92.324 129.898,92.472 129.750 C 92.656 129.566,92.174 129.727,90.619 130.369 M85.458 130.095 C 84.812 130.446,84.885 130.567,85.542 130.233 C 86.170 129.914,86.281 129.831,86.069 129.840 C 85.985 129.844,85.710 129.959,85.458 130.095 M219.875 130.286 C 220.127 130.324,220.540 130.324,220.792 130.286 C 221.044 130.248,220.838 130.217,220.333 130.217 C 219.829 130.217,219.623 130.248,219.875 130.286 M287.708 130.286 C 287.960 130.324,288.373 130.324,288.625 130.286 C 288.877 130.248,288.671 130.217,288.167 130.217 C 287.662 130.217,287.456 130.248,287.708 130.286 M84.495 130.842 C 84.395 131.030,84.336 131.297,84.364 131.436 C 84.393 131.574,84.499 131.421,84.600 131.094 C 84.806 130.426,84.768 130.333,84.495 130.842 M91.791 131.454 C 90.622 131.968,89.693 132.415,89.726 132.449 C 89.784 132.506,94.006 130.712,94.153 130.568 C 94.355 130.369,93.708 130.612,91.791 131.454 M87.167 131.833 C 86.846 132.009,86.658 132.153,86.750 132.153 C 86.842 132.153,87.179 132.009,87.500 131.833 C 87.821 131.658,88.008 131.514,87.917 131.514 C 87.825 131.514,87.487 131.658,87.167 131.833 M85.208 132.448 C 85.369 132.490,85.631 132.490,85.792 132.448 C 85.952 132.406,85.821 132.372,85.500 132.372 C 85.179 132.372,85.048 132.406,85.208 132.448 M102.000 132.583 C 101.771 132.714,101.658 132.822,101.750 132.822 C 101.842 132.822,102.104 132.714,102.333 132.583 C 102.563 132.452,102.675 132.345,102.583 132.345 C 102.492 132.345,102.229 132.452,102.000 132.583 M292.209 133.417 C 292.211 133.783,292.245 133.914,292.285 133.706 C 292.324 133.499,292.323 133.199,292.281 133.040 C 292.239 132.880,292.207 133.050,292.209 133.417 M87.700 133.367 C 87.276 133.791,87.702 135.050,88.339 135.252 C 88.821 135.405,89.814 135.203,90.500 134.812 C 91.077 134.483,90.971 134.502,89.833 134.932 C 88.398 135.474,87.132 134.562,87.810 133.475 C 88.032 133.120,87.988 133.078,87.700 133.367 M91.667 134.167 C 91.346 134.342,91.158 134.486,91.250 134.486 C 91.342 134.486,91.679 134.342,92.000 134.167 C 92.321 133.991,92.508 133.847,92.417 133.847 C 92.325 133.847,91.987 133.991,91.667 134.167 M97.250 134.824 C 96.150 135.363,95.295 135.811,95.350 135.819 C 95.405 135.827,96.380 135.387,97.517 134.842 C 98.653 134.296,99.508 133.849,99.417 133.847 C 99.325 133.845,98.350 134.285,97.250 134.824 M101.714 134.643 C 100.011 136.426,100.544 140.930,102.567 141.849 C 105.647 143.248,109.376 139.603,108.155 136.386 L 107.977 135.917 108.530 136.416 C 108.982 136.823,108.965 136.787,108.438 136.221 C 106.738 134.394,102.829 133.477,101.714 134.643 M105.667 135.090 C 108.182 136.351,107.137 140.572,104.308 140.581 C 102.798 140.585,102.000 139.581,102.000 137.677 C 102.000 135.307,103.704 134.106,105.667 135.090 M192.875 135.917 C 192.877 136.283,192.911 136.414,192.951 136.206 C 192.991 135.999,192.990 135.699,192.948 135.540 C 192.906 135.380,192.874 135.550,192.875 135.917 M93.591 136.512 C 92.862 136.872,92.374 137.163,92.508 137.158 C 92.641 137.154,93.313 136.858,94.000 136.500 C 95.626 135.654,95.309 135.664,93.591 136.512 M187.383 137.000 C 187.383 137.504,187.415 137.710,187.453 137.458 C 187.491 137.206,187.491 136.794,187.453 136.542 C 187.415 136.290,187.383 136.496,187.383 137.000 M108.242 145.875 L 107.583 146.583 108.292 145.925 C 108.950 145.312,109.077 145.167,108.950 145.167 C 108.923 145.167,108.605 145.485,108.242 145.875 M74.755 146.817 C 74.694 147.009,74.570 147.167,74.479 147.167 C 74.388 147.167,74.357 147.236,74.409 147.321 C 74.462 147.406,74.354 147.524,74.169 147.583 C 73.981 147.642,73.833 147.835,73.833 148.021 C 73.833 148.804,76.188 153.671,77.090 154.750 C 77.350 155.061,77.350 155.052,77.090 154.614 C 76.775 154.084,76.757 154.120,77.952 152.926 C 78.868 152.010,78.671 152.006,79.715 152.958 C 80.193 153.393,79.943 153.074,79.160 152.250 C 78.377 151.425,77.145 149.850,76.421 148.750 C 74.808 146.297,74.890 146.392,74.755 146.817 M77.616 155.679 C 77.781 155.962,78.023 156.280,78.153 156.388 C 78.284 156.495,78.180 156.265,77.923 155.875 C 77.383 155.057,77.171 154.922,77.616 155.679 M85.875 156.119 C 86.127 156.158,86.540 156.158,86.792 156.119 C 87.044 156.081,86.837 156.050,86.333 156.050 C 85.829 156.050,85.623 156.081,85.875 156.119 M80.326 159.042 C 81.017 159.778,81.167 159.910,81.167 159.785 C 81.167 159.758,80.810 159.402,80.375 158.993 L 79.583 158.250 80.326 159.042 " stroke="none" fill="#a2dc2f" fill-rule="evenodd"></path><path id="path4" d="M124.278 36.516 C 122.987 37.372,121.483 39.506,121.508 40.448 C 121.512 40.614,121.633 40.414,121.777 40.004 C 122.333 38.414,123.490 37.042,124.917 36.280 C 125.192 36.133,125.336 36.010,125.237 36.007 C 125.138 36.003,124.706 36.232,124.278 36.516 M126.650 39.018 C 125.935 39.783,125.959 40.889,126.708 41.690 C 127.006 42.009,127.117 42.108,126.954 41.911 C 126.077 40.849,126.385 39.437,127.583 39.037 C 128.749 38.648,129.846 39.312,130.145 40.589 C 130.275 41.143,130.303 41.175,130.317 40.786 C 130.385 38.887,127.895 37.685,126.650 39.018 M30.333 41.267 C 26.794 41.588,24.848 42.106,22.680 43.306 C 16.050 46.976,16.003 54.061,22.543 64.208 C 23.525 65.732,23.301 65.655,24.282 64.806 C 24.723 64.424,25.646 63.848,26.333 63.527 C 27.021 63.205,27.602 62.930,27.625 62.915 C 27.649 62.900,27.292 62.220,26.832 61.402 C 17.557 44.907,33.461 39.049,63.289 47.973 C 66.134 48.824,66.167 48.827,66.167 48.243 C 66.167 47.187,50.616 42.857,42.583 41.675 C 40.322 41.342,32.411 41.079,30.333 41.267 M67.102 48.287 C 66.663 48.726,67.039 49.136,68.292 49.586 C 75.786 52.275,86.137 56.644,85.905 57.019 C 85.857 57.097,86.046 57.030,86.324 56.872 C 87.027 56.472,87.176 56.577,83.537 54.926 C 78.361 52.579,76.010 51.581,72.251 50.137 C 70.326 49.397,68.402 48.655,67.977 48.489 C 67.551 48.322,67.157 48.232,67.102 48.287 M87.833 56.000 C 87.513 56.176,87.325 56.319,87.417 56.319 C 87.508 56.319,87.846 56.176,88.167 56.000 C 88.487 55.824,88.675 55.681,88.583 55.681 C 88.492 55.681,88.154 55.824,87.833 56.000 M90.375 58.381 C 89.819 58.633,89.868 58.682,91.542 59.538 C 95.912 61.773,100.334 64.200,104.000 66.374 C 107.570 68.491,108.090 68.754,108.139 68.460 C 108.170 68.275,108.095 68.028,107.973 67.910 C 107.563 67.518,98.631 62.476,94.750 60.447 C 92.642 59.345,90.879 58.391,90.833 58.327 C 90.787 58.264,90.581 58.288,90.375 58.381 M27.817 65.150 C 22.558 66.832,21.146 74.550,25.555 77.519 C 25.879 77.737,25.789 77.613,25.320 77.199 C 23.932 75.969,22.763 72.934,23.101 71.433 C 23.172 71.114,23.249 71.012,23.302 71.165 C 23.401 71.452,24.844 73.364,25.482 74.052 C 25.721 74.310,26.273 74.685,26.708 74.885 C 27.144 75.085,27.500 75.298,27.500 75.358 C 27.500 75.419,27.650 75.430,27.833 75.382 C 28.017 75.334,28.167 75.366,28.167 75.452 C 28.167 75.645,30.110 75.572,31.214 75.337 C 33.457 74.861,34.882 73.255,35.784 70.187 C 36.138 68.980,36.256 68.929,36.511 69.875 C 36.862 71.177,36.645 73.425,36.044 74.708 C 35.755 75.327,35.555 75.833,35.601 75.833 C 36.097 75.833,36.750 73.465,36.750 71.667 C 36.750 66.705,32.545 63.637,27.817 65.150 M30.167 67.833 C 30.545 68.212,30.562 68.315,30.341 68.896 C 29.916 70.015,28.333 69.605,28.333 68.374 C 28.333 67.578,29.552 67.218,30.167 67.833 M111.500 70.667 C 111.500 70.942,111.569 71.167,111.653 71.167 C 112.636 71.167,129.984 84.034,129.766 84.602 C 129.714 84.736,129.774 84.782,129.925 84.724 C 130.322 84.571,136.290 90.063,139.552 93.583 C 159.873 115.508,151.936 128.175,121.917 121.730 C 113.197 119.857,99.117 114.972,92.145 111.401 C 91.653 111.148,91.100 110.936,90.917 110.929 C 90.733 110.922,90.569 110.849,90.553 110.766 C 90.536 110.684,90.161 110.470,89.719 110.291 C 84.902 108.342,73.760 102.398,66.985 98.163 C 65.555 97.270,64.224 96.488,64.026 96.425 C 63.829 96.362,63.667 96.250,63.667 96.175 C 63.667 96.100,62.935 95.571,62.042 94.999 C 58.384 92.660,48.726 85.609,48.528 85.133 C 48.497 85.060,48.392 85.000,48.295 85.000 C 48.131 85.000,47.694 84.664,46.170 83.369 C 45.640 82.918,45.611 82.849,45.837 82.563 C 46.065 82.274,46.061 82.268,45.789 82.481 C 45.533 82.682,45.444 82.671,45.122 82.399 C 44.080 81.521,41.705 79.393,39.983 77.795 C 37.735 75.709,37.977 75.813,37.443 76.708 C 37.210 77.098,36.723 77.737,36.360 78.127 L 35.701 78.838 36.725 79.810 C 38.641 81.627,41.799 84.290,44.065 86.000 C 45.054 86.746,45.481 87.170,45.436 87.363 C 45.395 87.538,45.451 87.611,45.586 87.559 C 45.704 87.514,46.877 88.295,48.192 89.295 C 51.714 91.973,55.940 94.924,60.083 97.600 C 62.100 98.902,64.012 100.138,64.333 100.347 C 68.707 103.190,85.635 112.527,86.545 112.598 C 86.708 112.611,86.970 112.736,87.129 112.877 C 87.287 113.017,88.804 113.764,90.500 114.537 C 93.479 115.895,94.432 116.289,100.917 118.843 C 102.567 119.492,104.029 120.122,104.167 120.241 C 105.320 121.244,119.980 125.553,127.092 126.980 C 163.788 134.341,167.019 113.840,133.538 86.080 C 132.371 85.113,131.255 84.186,131.056 84.020 C 126.987 80.614,112.328 70.167,111.619 70.167 C 111.553 70.167,111.500 70.392,111.500 70.667 M34.417 76.953 C 33.867 77.468,33.642 77.734,33.917 77.543 C 34.396 77.210,35.645 75.992,35.491 76.008 C 35.450 76.012,34.967 76.437,34.417 76.953 M36.240 90.708 L 35.750 91.250 36.292 90.760 C 36.797 90.304,36.910 90.167,36.781 90.167 C 36.752 90.167,36.509 90.410,36.240 90.708 M30.824 96.125 L 30.250 96.750 30.875 96.176 C 31.457 95.641,31.577 95.500,31.449 95.500 C 31.422 95.500,31.140 95.781,30.824 96.125 M196.167 110.260 C 196.304 110.291,197.579 110.341,199.000 110.372 C 200.421 110.403,201.358 110.378,201.083 110.317 C 200.808 110.256,199.533 110.206,198.250 110.206 C 196.967 110.206,196.029 110.230,196.167 110.260 M219.083 110.319 C 218.808 110.381,219.671 110.405,221.000 110.373 C 224.117 110.297,224.531 110.205,221.750 110.206 C 220.558 110.206,219.358 110.257,219.083 110.319 M244.833 110.321 C 244.604 110.388,245.204 110.412,246.167 110.375 C 247.129 110.338,247.992 110.282,248.083 110.250 C 248.420 110.134,245.236 110.204,244.833 110.321 M263.083 110.250 C 263.175 110.282,264.037 110.338,265.000 110.375 C 265.962 110.412,266.563 110.388,266.333 110.321 C 265.930 110.204,262.747 110.134,263.083 110.250 M287.583 110.265 C 288.293 110.378,292.393 110.425,292.000 110.316 C 291.771 110.252,290.608 110.203,289.417 110.206 C 288.225 110.209,287.400 110.236,287.583 110.265 M242.474 111.808 C 241.810 112.549,240.872 114.000,241.057 114.000 C 241.100 114.000,241.341 113.648,241.593 113.219 C 241.845 112.789,242.349 112.114,242.713 111.719 C 243.078 111.323,243.336 111.000,243.287 111.000 C 243.238 111.000,242.872 111.364,242.474 111.808 M281.833 112.750 C 281.428 113.162,281.135 113.500,281.181 113.500 C 281.226 113.500,281.595 113.162,282.000 112.750 C 282.405 112.337,282.699 112.000,282.653 112.000 C 282.607 112.000,282.238 112.337,281.833 112.750 M286.406 116.042 L 285.917 116.583 286.458 116.094 C 286.963 115.638,287.077 115.500,286.948 115.500 C 286.919 115.500,286.675 115.744,286.406 116.042 M211.933 117.017 C 211.872 117.399,211.855 117.744,211.895 117.783 C 211.934 117.823,212.019 117.546,212.083 117.167 C 212.147 116.788,212.165 116.443,212.122 116.400 C 212.079 116.357,211.994 116.635,211.933 117.017 M201.517 118.146 C 201.410 118.690,201.168 119.348,200.978 119.609 L 200.634 120.083 201.054 119.631 C 201.437 119.219,201.984 117.428,201.787 117.232 C 201.746 117.190,201.624 117.602,201.517 118.146 M263.702 117.958 C 263.600 118.302,263.478 118.996,263.431 119.500 L 263.344 120.417 263.564 119.333 C 263.686 118.737,263.841 118.044,263.911 117.792 C 264.102 117.094,263.912 117.245,263.702 117.958 M291.699 118.350 L 291.667 119.449 290.208 119.625 L 288.750 119.802 290.167 119.717 C 291.889 119.615,291.865 119.636,291.791 118.316 L 291.731 117.250 291.699 118.350 M246.793 124.530 C 246.817 128.318,246.858 132.092,246.884 132.917 C 246.910 133.742,246.939 130.817,246.949 126.417 C 246.959 122.017,246.918 118.243,246.858 118.030 C 246.799 117.817,246.769 120.742,246.793 124.530 M253.244 126.250 C 253.244 130.742,253.265 132.555,253.292 130.280 C 253.318 128.005,253.318 124.330,253.291 122.113 C 253.265 119.897,253.244 121.758,253.244 126.250 M256.881 119.750 C 256.882 120.208,256.915 120.376,256.953 120.123 C 256.991 119.869,256.990 119.494,256.951 119.289 C 256.911 119.084,256.880 119.292,256.881 119.750 M222.877 119.620 C 223.131 119.658,223.506 119.657,223.711 119.617 C 223.916 119.578,223.708 119.546,223.250 119.548 C 222.792 119.549,222.624 119.581,222.877 119.620 M219.750 119.935 C 218.260 120.200,217.678 120.391,218.833 120.234 C 221.205 119.913,222.352 119.703,221.750 119.700 C 221.383 119.698,220.483 119.804,219.750 119.935 M287.875 119.948 C 288.035 119.990,288.298 119.990,288.458 119.948 C 288.619 119.906,288.487 119.872,288.167 119.872 C 287.846 119.872,287.715 119.906,287.875 119.948 M93.292 120.451 C 93.498 120.491,93.835 120.491,94.042 120.451 C 94.248 120.411,94.079 120.379,93.667 120.379 C 93.254 120.379,93.085 120.411,93.292 120.451 M263.232 122.750 C 263.233 124.033,263.259 124.536,263.291 123.868 C 263.322 123.199,263.322 122.149,263.290 121.534 C 263.258 120.920,263.232 121.467,263.232 122.750 M256.731 122.750 C 256.732 123.942,256.758 124.407,256.790 123.785 C 256.823 123.162,256.822 122.187,256.790 121.618 C 256.757 121.049,256.731 121.558,256.731 122.750 M190.333 121.917 C 190.644 122.237,190.936 122.500,190.982 122.500 C 191.028 122.500,190.811 122.237,190.500 121.917 C 190.189 121.596,189.897 121.333,189.851 121.333 C 189.805 121.333,190.022 121.596,190.333 121.917 M291.728 124.833 C 291.728 125.796,291.756 126.190,291.790 125.708 C 291.823 125.227,291.823 124.440,291.790 123.958 C 291.756 123.477,291.728 123.871,291.728 124.833 M190.083 124.598 L 189.583 125.028 190.125 124.669 C 190.423 124.472,190.667 124.278,190.667 124.239 C 190.667 124.114,190.596 124.157,190.083 124.598 M256.879 125.667 C 256.879 126.079,256.911 126.248,256.951 126.042 C 256.991 125.835,256.991 125.498,256.951 125.292 C 256.911 125.085,256.879 125.254,256.879 125.667 M263.372 125.667 C 263.372 125.987,263.406 126.119,263.448 125.958 C 263.490 125.798,263.490 125.535,263.448 125.375 C 263.406 125.215,263.372 125.346,263.372 125.667 M211.372 126.833 C 211.372 127.154,211.406 127.285,211.448 127.125 C 211.490 126.965,211.490 126.702,211.448 126.542 C 211.406 126.381,211.372 126.513,211.372 126.833 M211.212 128.167 C 211.212 128.579,211.245 128.748,211.284 128.542 C 211.324 128.335,211.324 127.998,211.284 127.792 C 211.245 127.585,211.212 127.754,211.212 128.167 M264.948 129.292 C 265.422 129.761,265.601 129.830,266.289 129.810 L 267.083 129.786 266.215 129.681 C 265.639 129.611,265.188 129.436,264.874 129.163 C 264.595 128.919,264.625 128.971,264.948 129.292 M211.372 129.500 C 211.372 129.821,211.406 129.952,211.448 129.792 C 211.490 129.631,211.490 129.369,211.448 129.208 C 211.406 129.048,211.372 129.179,211.372 129.500 M289.675 129.680 C 289.267 129.947,289.006 130.167,289.094 130.167 C 289.277 130.167,290.500 129.364,290.500 129.244 C 290.500 129.137,290.506 129.134,289.675 129.680 M291.960 131.792 C 292.062 132.864,292.127 132.951,292.147 132.042 C 292.158 131.560,292.107 131.167,292.033 131.167 C 291.960 131.167,291.927 131.448,291.960 131.792 M165.326 132.042 C 165.735 132.477,166.091 132.833,166.118 132.833 C 166.243 132.833,166.111 132.684,165.375 131.993 L 164.583 131.250 165.326 132.042 M298.205 133.000 C 298.205 133.321,298.240 133.452,298.282 133.292 C 298.323 133.131,298.323 132.869,298.282 132.708 C 298.240 132.548,298.205 132.679,298.205 133.000 M208.011 139.711 C 207.536 140.296,207.518 140.346,207.901 140.000 C 208.300 139.641,208.773 138.994,208.631 139.003 C 208.605 139.005,208.326 139.323,208.011 139.711 M189.430 140.855 C 189.541 141.034,190.842 141.714,190.921 141.634 C 190.952 141.604,190.608 141.382,190.157 141.142 C 189.706 140.902,189.379 140.772,189.430 140.855 M204.833 141.510 C 204.146 141.768,203.665 141.984,203.766 141.990 C 203.998 142.003,205.733 141.408,206.122 141.182 C 206.608 140.899,206.156 141.014,204.833 141.510 " stroke="none" fill="#88f7ee" fill-rule="evenodd"></path></g></svg>