 <svg  version="1.0" xmlns="http://www.w3.org/2000/svg"  width="300.000000pt" height="169.000000pt" viewBox="0 0 300.000000 169.000000"  preserveAspectRatio="xMidYMid meet">  <g transform="translate(0.000000,169.000000) scale(0.100000,-0.100000)" fill="#ff40ff" stroke="none"> <path d="M1231 1244 c-12 -15 -21 -34 -21 -44 0 -28 39 -70 65 -70 26 0 65 42 65 70 0 28 -39 70 -65 70 -14 0 -32 -11 -44 -26z m59 -59 c-12 -14 -14 -14 -30 2 -15 16 -15 19 -1 30 24 18 50 -9 31 -32z"/> <path d="M1040 1096 c0 -14 5 -28 10 -31 6 -4 10 -90 10 -225 0 -135 -4 -221 -10 -225 -5 -3 -10 -15 -10 -26 0 -16 7 -19 55 -19 49 0 55 2 55 20 0 11 -7 23 -15 26 -12 5 -15 29 -15 130 0 76 -4 124 -10 124 -5 0 -10 -10 -11 -22 -1 -31 -8 -71 -14 -77 -3 -2 -5 71 -5 162 0 143 2 167 15 167 9 0 18 -7 21 -15 4 -8 10 -12 15 -9 5 3 12 -3 16 -13 18 -51 94 -205 99 -200 3 3 -18 62 -47 131 l-53 126 -53 0 c-50 0 -53 -2 -53 -24z m61 -482 c10 -12 1 -26 -12 -18 -5 3 -8 35 -7 72 2 67 2 67 5 12 3 -30 8 -59 14 -66z"/> <path d="M1220 1100 c0 -10 9 -24 21 -31 16 -8 20 -18 16 -37 -2 -15 -1 -61 3 -102 5 -51 8 -62 9 -35 2 32 4 36 11 20 5 -11 9 -83 9 -160 1 -128 -1 -141 -17 -142 -11 -1 -23 10 -31 30 -54 125 -77 176 -93 202 -34 57 -17 0 41 -135 55 -130 59 -135 89 -138 l32 -3 0 249 c0 213 2 251 15 256 8 3 15 15 15 26 0 18 -6 20 -60 20 -53 0 -60 -2 -60 -20z m79 1 c11 -7 10 -11 -6 -19 -22 -12 -49 0 -39 17 9 13 26 14 45 2z"/> </g> </svg> 